<?xml version='1.0' encoding='utf-8'?>
<svg xmlns="http://www.w3.org/2000/svg" width="82" height="40" viewBox="0 0 82 40" version="1.1">
  <rect style="fill:#ff0000;stroke-width:0.264583" width="41.0" height="40" x="0" y="0" />
  <rect style="fill:#ff0000;stroke-width:0.264583" width="41.0" height="40" x="41.0" y="0" />
  <line style="stroke:#000000;stroke-width:2" x1="41.0" y1="0" x2="41.0" y2="40" />
  <circle cx="7.174999999999999" cy="6.0" r="3.0" style="fill:#ffffff;stroke-width:0.264583" />
  <circle cx="15.8875" cy="6.0" r="3.0" style="fill:#ffffff;stroke-width:0.264583" />
  <circle cx="25.112499999999997" cy="6.0" r="3.0" style="fill:#ffffff;stroke-width:0.264583" />
  <circle cx="33.824999999999996" cy="6.0" r="3.0" style="fill:#ffffff;stroke-width:0.264583" />
  <circle cx="7.174999999999999" cy="14.0" r="3.0" style="fill:#ffffff;stroke-width:0.264583" />
  <circle cx="15.8875" cy="14.0" r="3.0" style="fill:#ffffff;stroke-width:0.264583" />
  <circle cx="25.112499999999997" cy="14.0" r="3.0" style="fill:#ffffff;stroke-width:0.264583" />
  <circle cx="33.824999999999996" cy="14.0" r="3.0" style="fill:#ffffff;stroke-width:0.264583" />
  <circle cx="7.174999999999999" cy="24.0" r="3.0" style="fill:#ffffff;stroke-width:0.264583" />
  <circle cx="15.8875" cy="24.0" r="3.0" style="fill:#ffffff;stroke-width:0.264583" />
  <circle cx="25.112499999999997" cy="24.0" r="3.0" style="fill:#ffffff;stroke-width:0.264583" />
  <circle cx="33.824999999999996" cy="24.0" r="3.0" style="fill:#ffffff;stroke-width:0.264583" />
  <circle cx="11.531249999999998" cy="34.0" r="3.0" style="fill:#ffffff;stroke-width:0.264583" />
  <circle cx="28.956249999999997" cy="34.0" r="3.0" style="fill:#ffffff;stroke-width:0.264583" />
  <circle cx="47.15" cy="7.0" r="3.0" style="fill:#ffffff;stroke-width:0.264583" />
  <circle cx="54.8375" cy="7.0" r="3.0" style="fill:#ffffff;stroke-width:0.264583" />
  <circle cx="68.1625" cy="7.0" r="3.0" style="fill:#ffffff;stroke-width:0.264583" />
  <circle cx="75.85" cy="7.0" r="3.0" style="fill:#ffffff;stroke-width:0.264583" />
  <circle cx="47.15" cy="13.5" r="3.0" style="fill:#ffffff;stroke-width:0.264583" />
  <circle cx="54.8375" cy="13.5" r="3.0" style="fill:#ffffff;stroke-width:0.264583" />
  <circle cx="68.1625" cy="13.5" r="3.0" style="fill:#ffffff;stroke-width:0.264583" />
  <circle cx="75.85" cy="13.5" r="3.0" style="fill:#ffffff;stroke-width:0.264583" />
  <circle cx="47.15" cy="26.5" r="3.0" style="fill:#ffffff;stroke-width:0.264583" />
  <circle cx="54.8375" cy="26.5" r="3.0" style="fill:#ffffff;stroke-width:0.264583" />
  <circle cx="68.1625" cy="26.5" r="3.0" style="fill:#ffffff;stroke-width:0.264583" />
  <circle cx="75.85" cy="26.5" r="3.0" style="fill:#ffffff;stroke-width:0.264583" />
  <circle cx="47.15" cy="33.0" r="3.0" style="fill:#ffffff;stroke-width:0.264583" />
  <circle cx="54.8375" cy="33.0" r="3.0" style="fill:#ffffff;stroke-width:0.264583" />
  <circle cx="68.1625" cy="33.0" r="3.0" style="fill:#ffffff;stroke-width:0.264583" />
  <circle cx="75.85" cy="33.0" r="3.0" style="fill:#ffffff;stroke-width:0.264583" />
  <circle cx="61.5" cy="20.0" r="3.0" style="fill:#ffffff;stroke-width:0.264583" />
</svg>