<?xml version='1.0' encoding='utf-8'?>
<svg xmlns="http://www.w3.org/2000/svg" width="40" height="82" viewBox="0 0 40 82" version="1.1">
  <rect style="fill:#ff0000;stroke-width:0.264583" width="40" height="41.0" x="0" y="0" />
  <rect style="fill:#ff0000;stroke-width:0.264583" width="40" height="41.0" x="0" y="41.0" />
  <line style="stroke:#000000;stroke-width:2" x1="0" y1="41.0" x2="40" y2="41.0" />
  <circle cx="7.0" cy="6.1499999999999995" r="3.0" style="fill:#ffffff;stroke-width:0.264583" />
  <circle cx="15.5" cy="6.1499999999999995" r="3.0" style="fill:#ffffff;stroke-width:0.264583" />
  <circle cx="24.5" cy="6.1499999999999995" r="3.0" style="fill:#ffffff;stroke-width:0.264583" />
  <circle cx="33.0" cy="6.1499999999999995" r="3.0" style="fill:#ffffff;stroke-width:0.264583" />
  <circle cx="7.0" cy="14.349999999999998" r="3.0" style="fill:#ffffff;stroke-width:0.264583" />
  <circle cx="15.5" cy="14.349999999999998" r="3.0" style="fill:#ffffff;stroke-width:0.264583" />
  <circle cx="24.5" cy="14.349999999999998" r="3.0" style="fill:#ffffff;stroke-width:0.264583" />
  <circle cx="33.0" cy="14.349999999999998" r="3.0" style="fill:#ffffff;stroke-width:0.264583" />
  <circle cx="7.0" cy="24.599999999999998" r="3.0" style="fill:#ffffff;stroke-width:0.264583" />
  <circle cx="15.5" cy="24.599999999999998" r="3.0" style="fill:#ffffff;stroke-width:0.264583" />
  <circle cx="24.5" cy="24.599999999999998" r="3.0" style="fill:#ffffff;stroke-width:0.264583" />
  <circle cx="33.0" cy="24.599999999999998" r="3.0" style="fill:#ffffff;stroke-width:0.264583" />
  <circle cx="11.25" cy="34.849999999999994" r="3.0" style="fill:#ffffff;stroke-width:0.264583" />
  <circle cx="28.25" cy="34.849999999999994" r="3.0" style="fill:#ffffff;stroke-width:0.264583" />
  <circle cx="7.0" cy="47.15" r="3.0" style="fill:#ffffff;stroke-width:0.264583" />
  <circle cx="15.5" cy="47.15" r="3.0" style="fill:#ffffff;stroke-width:0.264583" />
  <circle cx="24.5" cy="47.15" r="3.0" style="fill:#ffffff;stroke-width:0.264583" />
  <circle cx="33.0" cy="47.15" r="3.0" style="fill:#ffffff;stroke-width:0.264583" />
  <circle cx="7.0" cy="55.349999999999994" r="3.0" style="fill:#ffffff;stroke-width:0.264583" />
  <circle cx="15.5" cy="55.349999999999994" r="3.0" style="fill:#ffffff;stroke-width:0.264583" />
  <circle cx="24.5" cy="55.349999999999994" r="3.0" style="fill:#ffffff;stroke-width:0.264583" />
  <circle cx="33.0" cy="55.349999999999994" r="3.0" style="fill:#ffffff;stroke-width:0.264583" />
  <circle cx="7.0" cy="65.6" r="3.0" style="fill:#ffffff;stroke-width:0.264583" />
  <circle cx="15.5" cy="65.6" r="3.0" style="fill:#ffffff;stroke-width:0.264583" />
  <circle cx="24.5" cy="65.6" r="3.0" style="fill:#ffffff;stroke-width:0.264583" />
  <circle cx="33.0" cy="65.6" r="3.0" style="fill:#ffffff;stroke-width:0.264583" />
  <circle cx="11.25" cy="75.85" r="3.0" style="fill:#ffffff;stroke-width:0.264583" />
  <circle cx="20.0" cy="75.85" r="3.0" style="fill:#ffffff;stroke-width:0.264583" />
  <circle cx="28.25" cy="75.85" r="3.0" style="fill:#ffffff;stroke-width:0.264583" />
</svg>