<?xml version="1.0" encoding="UTF-8" standalone="no"?>
<!-- Created with Inkscape (http://www.inkscape.org/) -->

<svg
   width="82"
   height="40"
   viewBox="0 0 21.695833 10.583333"
   version="1.1"
   id="svg1"
   sodipodi:docname="domino-10-10.svg"
   inkscape:export-filename="domino-10-10.svg"
   inkscape:export-xdpi="96"
   inkscape:export-ydpi="96"
   inkscape:version="1.4 (86a8ad7, 2024-10-11)"
   xmlns:inkscape="http://www.inkscape.org/namespaces/inkscape"
   xmlns:sodipodi="http://sodipodi.sourceforge.net/DTD/sodipodi-0.dtd"
   xmlns="http://www.w3.org/2000/svg"
   xmlns:svg="http://www.w3.org/2000/svg">
  <sodipodi:namedview
     id="namedview1"
     pagecolor="#ffffff"
     bordercolor="#000000"
     borderopacity="0.25"
     inkscape:showpageshadow="2"
     inkscape:pageopacity="0.0"
     inkscape:pagecheckerboard="0"
     inkscape:deskcolor="#d1d1d1"
     inkscape:document-units="px"
     inkscape:zoom="12.845082"
     inkscape:cx="40.443494"
     inkscape:cy="21.214345"
     inkscape:window-width="1920"
     inkscape:window-height="974"
     inkscape:window-x="-11"
     inkscape:window-y="-11"
     inkscape:window-maximized="1"
     inkscape:current-layer="layer1" />
  <defs
     id="defs1" />
  <g
     inkscape:groupmode="layer"
     inkscape:label="L1"
     id="g1">
    <rect
       x="0"
       y="0"
       width="21.43124932"
       height="10.31874967"
       style="stroke:black;fill:black;stroke-width:1.00012498;stroke-dasharray:none;fill-rule:nonzero"
       id="rect1" />
    <g
       id="g40"
       transform="matrix(0.264583 0 0 0.264583 -27.0706 -1.33162)">
      <g
         id="g4">
        <rect
           style="fill:#ff0000;stroke-width:0.264583"
           id="rect1-1-8"
           width="40"
           height="40"
           x="102.31418"
           y="5.0329099" />
      </g>
    </g>
    <g
       id="g40-1"
       transform="matrix(0.264583 0 0 0.264583 -15.9581 -1.33162)">
      <g
         id="g4-1">
        <rect
           style="fill:#ff0000;stroke-width:0.264583"
           id="rect1-1-8-1"
           width="40"
           height="40"
           x="102.31418"
           y="5.0329099" />
      </g>
    </g>
  </g>
  <g
     inkscape:groupmode="layer"
     id="g10"
     inkscape:label="dots-left"
     transform="translate(-11.246522,-0.0823921)">
    <circle
       style="fill:#000000;fill-opacity:1;stroke-width:0.264583"
       id="circle1"
       cx="137.37283"
       cy="36.702587"
       r="3"
       transform="matrix(0.264583,0,0,0.264583,-15.9581,-1.33162)"
       inkscape:label="dot-3-4" />
    <circle
       style="fill:#000000;fill-opacity:1;stroke-width:0.264583"
       id="circle2"
       cx="127.4041"
       cy="36.702587"
       r="3"
       transform="matrix(0.264583,0,0,0.264583,-15.9581,-1.33162)"
       inkscape:label="dot-3-3" />
    <circle
       style="fill:#000000;fill-opacity:1;stroke-width:0.264583"
       id="circle3"
       cx="117.43535"
       cy="36.702587"
       r="3"
       transform="matrix(0.264583,0,0,0.264583,-15.9581,-1.33162)"
       inkscape:label="dot-3-2" />
    <circle
       style="fill:#000000;fill-opacity:1;stroke-width:0.264583"
       id="circle4"
       cx="107.4666"
       cy="36.702587"
       r="3"
       transform="matrix(0.264583,0,0,0.264583,-15.9581,-1.33162)"
       inkscape:label="dot-3-1" />
    <circle
       style="fill:#000000;fill-opacity:1;stroke-width:0.264583"
       id="circle5"
       cx="137.37283"
       cy="24.087994"
       r="3"
       transform="matrix(0.264583,0,0,0.264583,-15.9581,-1.33162)"
       inkscape:label="dot-2-4" />
    <circle
       style="fill:#000000;fill-opacity:1;stroke-width:0.264583"
       id="circle6"
       cx="107.4666"
       cy="24.087994"
       r="3"
       transform="matrix(0.264583,0,0,0.264583,-15.9581,-1.33162)"
       inkscape:label="dot-2-1" />
    <circle
       style="fill:#000000;fill-opacity:1;stroke-width:0.264583"
       id="circle7"
       cx="137.37283"
       cy="11.473416"
       r="3"
       transform="matrix(0.264583,0,0,0.264583,-15.9581,-1.33162)"
       inkscape:label="dot-1-4" />
    <circle
       style="fill:#000000;fill-opacity:1;stroke-width:0.264583"
       id="circle8"
       cx="127.4041"
       cy="11.473416"
       r="3"
       transform="matrix(0.264583,0,0,0.264583,-15.9581,-1.33162)"
       inkscape:label="dot-1-3" />
    <circle
       style="fill:#000000;fill-opacity:1;stroke-width:0.264583"
       id="circle9"
       cx="117.43535"
       cy="11.473416"
       r="3"
       transform="matrix(0.264583,0,0,0.264583,-15.9581,-1.33162)"
       inkscape:label="dot-1-2" />
    <circle
       style="fill:#000000;fill-opacity:1;stroke-width:0.264583"
       id="circle10"
       cx="107.4666"
       cy="11.473416"
       r="3"
       transform="matrix(0.264583,0,0,0.264583,-15.9581,-1.33162)"
       inkscape:label="dot-1-1" />
  </g>
  <g
     inkscape:groupmode="layer"
     id="layer1"
     inkscape:label="dots">
    <circle
       style="fill:#000000;stroke-width:0.264583;fill-opacity:1"
       id="path1-5-6-3-8-1"
       cx="137.37283"
       cy="36.702587"
       r="3"
       transform="matrix(0.264583,0,0,0.264583,-15.9581,-1.33162)"
       inkscape:label="dot-3-4" />
    <circle
       style="fill:#000000;stroke-width:0.264583;fill-opacity:1"
       id="path1-8-1-3-9-1"
       cx="127.4041"
       cy="36.702587"
       r="3"
       transform="matrix(0.264583,0,0,0.264583,-15.9581,-1.33162)"
       inkscape:label="dot-3-3" />
    <circle
       style="fill:#000000;stroke-width:0.264583;fill-opacity:1"
       id="path1-1-8-4-6-1"
       cx="117.43535"
       cy="36.702587"
       r="3"
       transform="matrix(0.264583,0,0,0.264583,-15.9581,-1.33162)"
       inkscape:label="dot-3-2" />
    <circle
       style="fill:#000000;stroke-width:0.264583;fill-opacity:1"
       id="path1-2-2-1-1"
       cx="107.4666"
       cy="36.702587"
       r="3"
       transform="matrix(0.264583,0,0,0.264583,-15.9581,-1.33162)"
       inkscape:label="dot-3-1" />
    <circle
       style="fill:#000000;stroke-width:0.264583;fill-opacity:1"
       id="path1-1-4-1-3-1"
       cx="137.37283"
       cy="24.087994"
       r="3"
       transform="matrix(0.264583,0,0,0.264583,-15.9581,-1.33162)"
       inkscape:label="dot-2-4" />
    <circle
       style="fill:#000000;stroke-width:0.264583;fill-opacity:1"
       id="path1-8-6-4-9-1"
       cx="107.4666"
       cy="24.087994"
       r="3"
       transform="matrix(0.264583,0,0,0.264583,-15.9581,-1.33162)"
       inkscape:label="dot-2-1" />
    <circle
       style="fill:#000000;stroke-width:0.264583;fill-opacity:1"
       id="path1-5-7-2-1"
       cx="137.37283"
       cy="11.473416"
       r="3"
       transform="matrix(0.264583,0,0,0.264583,-15.9581,-1.33162)"
       inkscape:label="dot-1-4" />
    <circle
       style="fill:#000000;stroke-width:0.264583;fill-opacity:1"
       id="path1-8-2-4-1"
       cx="127.4041"
       cy="11.473416"
       r="3"
       transform="matrix(0.264583,0,0,0.264583,-15.9581,-1.33162)"
       inkscape:label="dot-1-3" />
    <circle
       style="fill:#000000;stroke-width:0.264583;fill-opacity:1"
       id="path1-1-9-7-1"
       cx="117.43535"
       cy="11.473416"
       r="3"
       transform="matrix(0.264583,0,0,0.264583,-15.9581,-1.33162)"
       inkscape:label="dot-1-2" />
    <circle
       style="fill:#000000;stroke-width:0.264583;fill-opacity:1"
       id="path1-89-7-1"
       cx="107.4666"
       cy="11.473416"
       r="3"
       transform="matrix(0.264583,0,0,0.264583,-15.9581,-1.33162)"
       inkscape:label="dot-1-1" />
  </g>
</svg>
