{"accessors":[{"bufferView":0,"byteOffset":0,"componentType":5126,"count":14,"max":[1.0,1.0,1.0],"min":[-1.0,-1.0,-1.0],"normalized":false,"type":"VEC3"},{"bufferView":1,"byteOffset":0,"componentType":5126,"count":14,"max":[0.816525101661682,0.816542148590088,0.408301204442978,1.0],"min":[-0.816466987133026,-0.40831395983696,-0.408285200595856,1.0],"normalized":false,"type":"VEC4"},{"bufferView":2,"byteOffset":0,"componentType":5126,"count":14,"max":[0.577409148216248,0.577449202537537,0.577429294586182],"min":[-0.577468454837799,-0.577394247055054,-0.577398717403412],"normalized":false,"type":"VEC3"},{"bufferView":3,"byteOffset":0,"componentType":5126,"count":14,"max":[0.874998092651367,1.0],"min":[0.12498664855957,0.0],"normalized":false,"type":"VEC2"},{"bufferView":4,"byteOffset":0,"componentType":5123,"count":36,"max":[13.0],"min":[0.0],"normalized":false,"type":"SCALAR"},{"bufferView":5,"byteOffset":0,"componentType":5126,"count":660,"max":[0.997146368026733,0.99999988079071,0.997146546840668],"min":[-0.997146606445313,-1.00000011920929,-0.997146427631378],"normalized":false,"type":"VEC3"},{"bufferView":6,"byteOffset":0,"componentType":5126,"count":660,"max":[0.997061967849731,0.997060358524323,0.997061431407928,1.0],"min":[-0.997062146663666,-0.0825788900256157,-0.99704897403717,-1.0],"normalized":false,"type":"VEC4"},{"bufferView":7,"byteOffset":0,"componentType":5126,"count":660,"max":[0.997063457965851,0.997076332569122,0.997053802013397],"min":[-0.997057795524597,-0.997071862220764,-0.997059762477875],"normalized":false,"type":"VEC3"},{"bufferView":8,"byteOffset":0,"componentType":5126,"count":660,"max":[1.0,1.0],"min":[0.0,0.0],"normalized":false,"type":"VEC2"},{"bufferView":9,"byteOffset":0,"componentType":5123,"count":3648,"max":[659.0],"min":[0.0],"normalized":false,"type":"SCALAR"},{"bufferView":10,"byteOffset":0,"componentType":5126,"count":660,"max":[0.997146427631378,1.0,0.997146487236023],"min":[-0.997146606445313,-1.00000011920929,-0.997146427631378],"normalized":false,"type":"VEC3"},{"bufferView":11,"byteOffset":0,"componentType":5126,"count":660,"max":[1.0,0.99705582857132,0.997057199478149,1.0],"min":[-0.997063517570496,0.0,-1.0,-1.0],"normalized":false,"type":"VEC4"},{"bufferView":12,"byteOffset":0,"componentType":5126,"count":660,"max":[0.997054517269135,0.997070729732513,0.997054517269135],"min":[-0.997055888175964,-0.99707043170929,-0.997053265571594],"normalized":false,"type":"VEC3"},{"bufferView":13,"byteOffset":0,"componentType":5126,"count":660,"max":[1.0,1.0],"min":[0.0,0.0],"normalized":false,"type":"VEC2"},{"bufferView":14,"byteOffset":0,"componentType":5123,"count":3648,"max":[659.0],"min":[0.0],"normalized":false,"type":"SCALAR"},{"bufferView":15,"byteOffset":0,"componentType":5126,"count":660,"max":[0.997146427631378,1.0,0.997146487236023],"min":[-0.997146606445313,-1.00000011920929,-0.997146427631378],"normalized":false,"type":"VEC3"},{"bufferView":16,"byteOffset":0,"componentType":5126,"count":660,"max":[1.0,0.99705582857132,0.997057199478149,1.0],"min":[-0.997063517570496,0.0,-1.0,-1.0],"normalized":false,"type":"VEC4"},{"bufferView":17,"byteOffset":0,"componentType":5126,"count":660,"max":[0.997054517269135,0.997070729732513,0.997054517269135],"min":[-0.997055888175964,-0.99707043170929,-0.997053265571594],"normalized":false,"type":"VEC3"},{"bufferView":18,"byteOffset":0,"componentType":5126,"count":660,"max":[1.0,1.0],"min":[0.0,0.0],"normalized":false,"type":"VEC2"},{"bufferView":19,"byteOffset":0,"componentType":5123,"count":3648,"max":[659.0],"min":[0.0],"normalized":false,"type":"SCALAR"},{"bufferView":20,"byteOffset":0,"componentType":5126,"count":660,"max":[0.997146427631378,1.0,0.997146487236023],"min":[-0.997146606445313,-1.00000011920929,-0.997146427631378],"normalized":false,"type":"VEC3"},{"bufferView":21,"byteOffset":0,"componentType":5126,"count":660,"max":[1.0,0.99705582857132,0.997057199478149,1.0],"min":[-0.997063517570496,0.0,-1.0,-1.0],"normalized":false,"type":"VEC4"},{"bufferView":22,"byteOffset":0,"componentType":5126,"count":660,"max":[0.997054517269135,0.997070729732513,0.997054517269135],"min":[-0.997055888175964,-0.99707043170929,-0.997053265571594],"normalized":false,"type":"VEC3"},{"bufferView":23,"byteOffset":0,"componentType":5126,"count":660,"max":[1.0,1.0],"min":[0.0,0.0],"normalized":false,"type":"VEC2"},{"bufferView":24,"byteOffset":0,"componentType":5123,"count":3648,"max":[659.0],"min":[0.0],"normalized":false,"type":"SCALAR"},{"bufferView":25,"byteOffset":0,"componentType":5126,"count":660,"max":[0.997146427631378,1.0,0.997146487236023],"min":[-0.997146606445313,-1.00000011920929,-0.997146427631378],"normalized":false,"type":"VEC3"},{"bufferView":26,"byteOffset":0,"componentType":5126,"count":660,"max":[1.0,0.99705582857132,0.997057199478149,1.0],"min":[-0.997063517570496,0.0,-1.0,-1.0],"normalized":false,"type":"VEC4"},{"bufferView":27,"byteOffset":0,"componentType":5126,"count":660,"max":[0.997054517269135,0.997070729732513,0.997054517269135],"min":[-0.997055888175964,-0.99707043170929,-0.997053265571594],"normalized":false,"type":"VEC3"},{"bufferView":28,"byteOffset":0,"componentType":5126,"count":660,"max":[1.0,1.0],"min":[0.0,0.0],"normalized":false,"type":"VEC2"},{"bufferView":29,"byteOffset":0,"componentType":5123,"count":3648,"max":[659.0],"min":[0.0],"normalized":false,"type":"SCALAR"},{"bufferView":30,"byteOffset":0,"componentType":5126,"count":660,"max":[0.997146427631378,1.0,0.997146487236023],"min":[-0.997146606445313,-1.00000011920929,-0.997146427631378],"normalized":false,"type":"VEC3"},{"bufferView":31,"byteOffset":0,"componentType":5126,"count":660,"max":[1.0,0.99705582857132,0.997057199478149,1.0],"min":[-0.997063517570496,0.0,-1.0,-1.0],"normalized":false,"type":"VEC4"},{"bufferView":32,"byteOffset":0,"componentType":5126,"count":660,"max":[0.997054517269135,0.997070729732513,0.997054517269135],"min":[-0.997055888175964,-0.99707043170929,-0.997053265571594],"normalized":false,"type":"VEC3"},{"bufferView":33,"byteOffset":0,"componentType":5126,"count":660,"max":[1.0,1.0],"min":[0.0,0.0],"normalized":false,"type":"VEC2"},{"bufferView":34,"byteOffset":0,"componentType":5123,"count":3648,"max":[659.0],"min":[0.0],"normalized":false,"type":"SCALAR"},{"bufferView":35,"byteOffset":0,"componentType":5126,"count":660,"max":[0.997146427631378,1.0,0.997146487236023],"min":[-0.997146606445313,-1.00000011920929,-0.997146427631378],"normalized":false,"type":"VEC3"},{"bufferView":36,"byteOffset":0,"componentType":5126,"count":660,"max":[1.0,0.99705582857132,0.997057199478149,1.0],"min":[-0.997063517570496,0.0,-1.0,-1.0],"normalized":false,"type":"VEC4"},{"bufferView":37,"byteOffset":0,"componentType":5126,"count":660,"max":[0.997054517269135,0.997070729732513,0.997054517269135],"min":[-0.997055888175964,-0.99707043170929,-0.997053265571594],"normalized":false,"type":"VEC3"},{"bufferView":38,"byteOffset":0,"componentType":5126,"count":660,"max":[1.0,1.0],"min":[0.0,0.0],"normalized":false,"type":"VEC2"},{"bufferView":39,"byteOffset":0,"componentType":5123,"count":3648,"max":[659.0],"min":[0.0],"normalized":false,"type":"SCALAR"},{"bufferView":40,"byteOffset":0,"componentType":5126,"count":660,"max":[0.997146427631378,1.0,0.997146487236023],"min":[-0.997146606445313,-1.00000011920929,-0.997146427631378],"normalized":false,"type":"VEC3"},{"bufferView":41,"byteOffset":0,"componentType":5126,"count":660,"max":[1.0,0.99705582857132,0.997057199478149,1.0],"min":[-0.997063517570496,0.0,-1.0,-1.0],"normalized":false,"type":"VEC4"},{"bufferView":42,"byteOffset":0,"componentType":5126,"count":660,"max":[0.997054517269135,0.997070729732513,0.997054517269135],"min":[-0.997055888175964,-0.99707043170929,-0.997053265571594],"normalized":false,"type":"VEC3"},{"bufferView":43,"byteOffset":0,"componentType":5126,"count":660,"max":[1.0,1.0],"min":[0.0,0.0],"normalized":false,"type":"VEC2"},{"bufferView":44,"byteOffset":0,"componentType":5123,"count":3648,"max":[659.0],"min":[0.0],"normalized":false,"type":"SCALAR"},{"bufferView":45,"byteOffset":0,"componentType":5126,"count":660,"max":[0.997146427631378,1.0,0.997146487236023],"min":[-0.997146606445313,-1.00000011920929,-0.997146427631378],"normalized":false,"type":"VEC3"},{"bufferView":46,"byteOffset":0,"componentType":5126,"count":660,"max":[1.0,0.99705582857132,0.997057199478149,1.0],"min":[-0.997063517570496,0.0,-1.0,-1.0],"normalized":false,"type":"VEC4"},{"bufferView":47,"byteOffset":0,"componentType":5126,"count":660,"max":[0.997054517269135,0.997070729732513,0.997054517269135],"min":[-0.997055888175964,-0.99707043170929,-0.997053265571594],"normalized":false,"type":"VEC3"},{"bufferView":48,"byteOffset":0,"componentType":5126,"count":660,"max":[1.0,1.0],"min":[0.0,0.0],"normalized":false,"type":"VEC2"},{"bufferView":49,"byteOffset":0,"componentType":5123,"count":3648,"max":[659.0],"min":[0.0],"normalized":false,"type":"SCALAR"},{"bufferView":50,"byteOffset":0,"componentType":5126,"count":660,"max":[0.997146427631378,1.0,0.997146487236023],"min":[-0.997146606445313,-1.00000011920929,-0.997146427631378],"normalized":false,"type":"VEC3"},{"bufferView":51,"byteOffset":0,"componentType":5126,"count":660,"max":[1.0,0.99705582857132,0.997057199478149,1.0],"min":[-0.997063517570496,0.0,-1.0,-1.0],"normalized":false,"type":"VEC4"},{"bufferView":52,"byteOffset":0,"componentType":5126,"count":660,"max":[0.997054517269135,0.997070729732513,0.997054517269135],"min":[-0.997055888175964,-0.99707043170929,-0.997053265571594],"normalized":false,"type":"VEC3"},{"bufferView":53,"byteOffset":0,"componentType":5126,"count":660,"max":[1.0,1.0],"min":[0.0,0.0],"normalized":false,"type":"VEC2"},{"bufferView":54,"byteOffset":0,"componentType":5123,"count":3648,"max":[659.0],"min":[0.0],"normalized":false,"type":"SCALAR"},{"bufferView":55,"byteOffset":0,"componentType":5126,"count":660,"max":[0.997146427631378,1.0,0.997146487236023],"min":[-0.997146606445313,-1.00000011920929,-0.997146427631378],"normalized":false,"type":"VEC3"},{"bufferView":56,"byteOffset":0,"componentType":5126,"count":660,"max":[1.0,0.99705582857132,0.997057199478149,1.0],"min":[-0.997063517570496,0.0,-1.0,-1.0],"normalized":false,"type":"VEC4"},{"bufferView":57,"byteOffset":0,"componentType":5126,"count":660,"max":[0.997054517269135,0.997070729732513,0.997054517269135],"min":[-0.997055888175964,-0.99707043170929,-0.997053265571594],"normalized":false,"type":"VEC3"},{"bufferView":58,"byteOffset":0,"componentType":5126,"count":660,"max":[1.0,1.0],"min":[0.0,0.0],"normalized":false,"type":"VEC2"},{"bufferView":59,"byteOffset":0,"componentType":5123,"count":3648,"max":[659.0],"min":[0.0],"normalized":false,"type":"SCALAR"},{"bufferView":60,"byteOffset":0,"componentType":5126,"count":660,"max":[0.997146427631378,1.0,0.997146487236023],"min":[-0.997146606445313,-1.00000011920929,-0.997146427631378],"normalized":false,"type":"VEC3"},{"bufferView":61,"byteOffset":0,"componentType":5126,"count":660,"max":[1.0,0.99705582857132,0.997057199478149,1.0],"min":[-0.997063517570496,0.0,-1.0,-1.0],"normalized":false,"type":"VEC4"},{"bufferView":62,"byteOffset":0,"componentType":5126,"count":660,"max":[0.997054517269135,0.997070729732513,0.997054517269135],"min":[-0.997055888175964,-0.99707043170929,-0.997053265571594],"normalized":false,"type":"VEC3"},{"bufferView":63,"byteOffset":0,"componentType":5126,"count":660,"max":[1.0,1.0],"min":[0.0,0.0],"normalized":false,"type":"VEC2"},{"bufferView":64,"byteOffset":0,"componentType":5123,"count":3648,"max":[659.0],"min":[0.0],"normalized":false,"type":"SCALAR"}],"asset":{"generator":"Godot Engine v4.4.stable.official@4c311cbee68c0b66ff8ebb8b0defdd9979dd2a41","version":"2.0"},"bufferViews":[{"buffer":0,"byteLength":168,"byteOffset":0,"byteStride":12,"target":34962},{"buffer":0,"byteLength":224,"byteOffset":168,"byteStride":16,"target":34962},{"buffer":0,"byteLength":168,"byteOffset":392,"byteStride":12,"target":34962},{"buffer":0,"byteLength":112,"byteOffset":560,"byteStride":8,"target":34962},{"buffer":0,"byteLength":72,"byteOffset":672,"target":34963},{"buffer":0,"byteLength":7920,"byteOffset":744,"byteStride":12,"target":34962},{"buffer":0,"byteLength":10560,"byteOffset":8664,"byteStride":16,"target":34962},{"buffer":0,"byteLength":7920,"byteOffset":19224,"byteStride":12,"target":34962},{"buffer":0,"byteLength":5280,"byteOffset":27144,"byteStride":8,"target":34962},{"buffer":0,"byteLength":7296,"byteOffset":32424,"target":34963},{"buffer":0,"byteLength":7920,"byteOffset":39720,"byteStride":12,"target":34962},{"buffer":0,"byteLength":10560,"byteOffset":47640,"byteStride":16,"target":34962},{"buffer":0,"byteLength":7920,"byteOffset":58200,"byteStride":12,"target":34962},{"buffer":0,"byteLength":5280,"byteOffset":66120,"byteStride":8,"target":34962},{"buffer":0,"byteLength":7296,"byteOffset":71400,"target":34963},{"buffer":0,"byteLength":7920,"byteOffset":78696,"byteStride":12,"target":34962},{"buffer":0,"byteLength":10560,"byteOffset":86616,"byteStride":16,"target":34962},{"buffer":0,"byteLength":7920,"byteOffset":97176,"byteStride":12,"target":34962},{"buffer":0,"byteLength":5280,"byteOffset":105096,"byteStride":8,"target":34962},{"buffer":0,"byteLength":7296,"byteOffset":110376,"target":34963},{"buffer":0,"byteLength":7920,"byteOffset":117672,"byteStride":12,"target":34962},{"buffer":0,"byteLength":10560,"byteOffset":125592,"byteStride":16,"target":34962},{"buffer":0,"byteLength":7920,"byteOffset":136152,"byteStride":12,"target":34962},{"buffer":0,"byteLength":5280,"byteOffset":144072,"byteStride":8,"target":34962},{"buffer":0,"byteLength":7296,"byteOffset":149352,"target":34963},{"buffer":0,"byteLength":7920,"byteOffset":156648,"byteStride":12,"target":34962},{"buffer":0,"byteLength":10560,"byteOffset":164568,"byteStride":16,"target":34962},{"buffer":0,"byteLength":7920,"byteOffset":175128,"byteStride":12,"target":34962},{"buffer":0,"byteLength":5280,"byteOffset":183048,"byteStride":8,"target":34962},{"buffer":0,"byteLength":7296,"byteOffset":188328,"target":34963},{"buffer":0,"byteLength":7920,"byteOffset":195624,"byteStride":12,"target":34962},{"buffer":0,"byteLength":10560,"byteOffset":203544,"byteStride":16,"target":34962},{"buffer":0,"byteLength":7920,"byteOffset":214104,"byteStride":12,"target":34962},{"buffer":0,"byteLength":5280,"byteOffset":222024,"byteStride":8,"target":34962},{"buffer":0,"byteLength":7296,"byteOffset":227304,"target":34963},{"buffer":0,"byteLength":7920,"byteOffset":234600,"byteStride":12,"target":34962},{"buffer":0,"byteLength":10560,"byteOffset":242520,"byteStride":16,"target":34962},{"buffer":0,"byteLength":7920,"byteOffset":253080,"byteStride":12,"target":34962},{"buffer":0,"byteLength":5280,"byteOffset":261000,"byteStride":8,"target":34962},{"buffer":0,"byteLength":7296,"byteOffset":266280,"target":34963},{"buffer":0,"byteLength":7920,"byteOffset":273576,"byteStride":12,"target":34962},{"buffer":0,"byteLength":10560,"byteOffset":281496,"byteStride":16,"target":34962},{"buffer":0,"byteLength":7920,"byteOffset":292056,"byteStride":12,"target":34962},{"buffer":0,"byteLength":5280,"byteOffset":299976,"byteStride":8,"target":34962},{"buffer":0,"byteLength":7296,"byteOffset":305256,"target":34963},{"buffer":0,"byteLength":7920,"byteOffset":312552,"byteStride":12,"target":34962},{"buffer":0,"byteLength":10560,"byteOffset":320472,"byteStride":16,"target":34962},{"buffer":0,"byteLength":7920,"byteOffset":331032,"byteStride":12,"target":34962},{"buffer":0,"byteLength":5280,"byteOffset":338952,"byteStride":8,"target":34962},{"buffer":0,"byteLength":7296,"byteOffset":344232,"target":34963},{"buffer":0,"byteLength":7920,"byteOffset":351528,"byteStride":12,"target":34962},{"buffer":0,"byteLength":10560,"byteOffset":359448,"byteStride":16,"target":34962},{"buffer":0,"byteLength":7920,"byteOffset":370008,"byteStride":12,"target":34962},{"buffer":0,"byteLength":5280,"byteOffset":377928,"byteStride":8,"target":34962},{"buffer":0,"byteLength":7296,"byteOffset":383208,"target":34963},{"buffer":0,"byteLength":7920,"byteOffset":390504,"byteStride":12,"target":34962},{"buffer":0,"byteLength":10560,"byteOffset":398424,"byteStride":16,"target":34962},{"buffer":0,"byteLength":7920,"byteOffset":408984,"byteStride":12,"target":34962},{"buffer":0,"byteLength":5280,"byteOffset":416904,"byteStride":8,"target":34962},{"buffer":0,"byteLength":7296,"byteOffset":422184,"target":34963},{"buffer":0,"byteLength":7920,"byteOffset":429480,"byteStride":12,"target":34962},{"buffer":0,"byteLength":10560,"byteOffset":437400,"byteStride":16,"target":34962},{"buffer":0,"byteLength":7920,"byteOffset":447960,"byteStride":12,"target":34962},{"buffer":0,"byteLength":5280,"byteOffset":455880,"byteStride":8,"target":34962},{"buffer":0,"byteLength":7296,"byteOffset":461160,"target":34963}],"buffers":[{"byteLength":468456,"uri":"d_120.bin"}],"extensionsUsed":["GODOT_single_root"],"images":[{"uri":"textures%2F_orm000.png"},{"uri":"textures%2F_normal000.png"}],"materials":[{"doubleSided":true,"extensions":{},"name":"Material_Domino","pbrMetallicRoughness":{"baseColorFactor":[1.0,1.0,1.0,1.0],"metallicFactor":0.0,"roughnessFactor":1.0}},{"extensions":{},"normalTexture":{"index":1,"scale":1.0},"pbrMetallicRoughness":{"baseColorFactor":[0.0,0.0,0.0,1.0],"metallicFactor":0.0,"metallicRoughnessTexture":{"index":0},"roughnessFactor":1.0}}],"meshes":[{"extras":{"targetNames":[]},"primitives":[{"attributes":{"NORMAL":2,"POSITION":0,"TANGENT":1,"TEXCOORD_0":3},"indices":4,"material":0,"mode":4}]},{"extras":{"targetNames":[]},"primitives":[{"attributes":{"NORMAL":7,"POSITION":5,"TANGENT":6,"TEXCOORD_0":8},"indices":9,"material":1,"mode":4}]},{"extras":{"targetNames":[]},"primitives":[{"attributes":{"NORMAL":12,"POSITION":10,"TANGENT":11,"TEXCOORD_0":13},"indices":14,"material":1,"mode":4}]},{"extras":{"targetNames":[]},"primitives":[{"attributes":{"NORMAL":17,"POSITION":15,"TANGENT":16,"TEXCOORD_0":18},"indices":19,"material":1,"mode":4}]},{"extras":{"targetNames":[]},"primitives":[{"attributes":{"NORMAL":22,"POSITION":20,"TANGENT":21,"TEXCOORD_0":23},"indices":24,"material":1,"mode":4}]},{"extras":{"targetNames":[]},"primitives":[{"attributes":{"NORMAL":27,"POSITION":25,"TANGENT":26,"TEXCOORD_0":28},"indices":29,"material":1,"mode":4}]},{"extras":{"targetNames":[]},"primitives":[{"attributes":{"NORMAL":32,"POSITION":30,"TANGENT":31,"TEXCOORD_0":33},"indices":34,"material":1,"mode":4}]},{"extras":{"targetNames":[]},"primitives":[{"attributes":{"NORMAL":37,"POSITION":35,"TANGENT":36,"TEXCOORD_0":38},"indices":39,"material":1,"mode":4}]},{"extras":{"targetNames":[]},"primitives":[{"attributes":{"NORMAL":42,"POSITION":40,"TANGENT":41,"TEXCOORD_0":43},"indices":44,"material":1,"mode":4}]},{"extras":{"targetNames":[]},"primitives":[{"attributes":{"NORMAL":47,"POSITION":45,"TANGENT":46,"TEXCOORD_0":48},"indices":49,"material":1,"mode":4}]},{"extras":{"targetNames":[]},"primitives":[{"attributes":{"NORMAL":52,"POSITION":50,"TANGENT":51,"TEXCOORD_0":53},"indices":54,"material":1,"mode":4}]},{"extras":{"targetNames":[]},"primitives":[{"attributes":{"NORMAL":57,"POSITION":55,"TANGENT":56,"TEXCOORD_0":58},"indices":59,"material":1,"mode":4}]},{"extras":{"targetNames":[]},"primitives":[{"attributes":{"NORMAL":62,"POSITION":60,"TANGENT":61,"TEXCOORD_0":63},"indices":64,"material":1,"mode":4}]}],"nodes":[{"children":[1,2,3,4,5,6,7,8,9,10,11,12,13],"name":"D12"},{"mesh":0,"name":"Cube","scale":[1.0,0.5,1.0],"translation":[1.0,0.0,-1.0]},{"mesh":1,"name":"SurfSphere_001","scale":[0.200000002980232,0.200000002980232,0.200000002980232],"translation":[0.25,0.5,-0.25]},{"mesh":2,"name":"SurfSphere_002","scale":[0.200000002980232,0.200000002980232,0.200000002980232],"translation":[0.75,0.5,-0.25]},{"mesh":3,"name":"SurfSphere_003","scale":[0.200000002980232,0.200000002980232,0.200000002980232],"translation":[1.25,0.5,-0.25]},{"mesh":4,"name":"SurfSphere_004","scale":[0.200000002980232,0.200000002980232,0.200000002980232],"translation":[1.75,0.5,-0.25]},{"mesh":5,"name":"SurfSphere_005","scale":[0.200000002980232,0.200000002980232,0.200000002980232],"translation":[0.75,0.5,-1.0]},{"mesh":6,"name":"SurfSphere_006","scale":[0.200000002980232,0.200000002980232,0.200000002980232],"translation":[0.25,0.5,-1.0]},{"mesh":7,"name":"SurfSphere_007","scale":[0.200000002980232,0.200000002980232,0.200000002980232],"translation":[1.25,0.5,-1.0]},{"mesh":8,"name":"SurfSphere_008","scale":[0.200000002980232,0.200000002980232,0.200000002980232],"translation":[1.75,0.5,-1.0]},{"mesh":9,"name":"SurfSphere_009","scale":[0.200000002980232,0.200000002980232,0.200000002980232],"translation":[0.25,0.5,-1.75]},{"mesh":10,"name":"SurfSphere_010","scale":[0.200000002980232,0.200000002980232,0.200000002980232],"translation":[0.75,0.5,-1.75]},{"mesh":11,"name":"SurfSphere_011","scale":[0.200000002980232,0.200000002980232,0.200000002980232],"translation":[1.25,0.5,-1.75]},{"mesh":12,"name":"SurfSphere_012","scale":[0.200000002980232,0.200000002980232,0.200000002980232],"translation":[1.75,0.5,-1.75]}],"samplers":[{"magFilter":9729,"minFilter":9987,"wrapS":10497,"wrapT":10497}],"scene":0,"scenes":[{"nodes":[0]}],"textures":[{"sampler":0,"source":0},{"sampler":0,"source":1}]}