<?xml version='1.0' encoding='utf-8'?>
<svg xmlns="http://www.w3.org/2000/svg" width="82" height="40" viewBox="0 0 82 40" version="1.1">
  <rect style="fill:#ff0000;stroke-width:0.264583" width="41.0" height="40" x="0" y="0" />
  <rect style="fill:#ff0000;stroke-width:0.264583" width="41.0" height="40" x="41.0" y="0" />
  <line style="stroke:#000000;stroke-width:2" x1="41.0" y1="0" x2="41.0" y2="40" />
  <circle cx="47.15" cy="6.0" r="3.0" style="fill:#000000;stroke-width:0.264583" />
  <circle cx="55.349999999999994" cy="6.0" r="3.0" style="fill:#000000;stroke-width:0.264583" />
  <circle cx="67.65" cy="6.0" r="3.0" style="fill:#000000;stroke-width:0.264583" />
  <circle cx="75.85" cy="6.0" r="3.0" style="fill:#000000;stroke-width:0.264583" />
  <circle cx="47.15" cy="15.33" r="3.0" style="fill:#000000;stroke-width:0.264583" />
  <circle cx="55.349999999999994" cy="15.33" r="3.0" style="fill:#000000;stroke-width:0.264583" />
  <circle cx="67.65" cy="15.33" r="3.0" style="fill:#000000;stroke-width:0.264583" />
  <circle cx="75.85" cy="15.33" r="3.0" style="fill:#000000;stroke-width:0.264583" />
  <circle cx="47.15" cy="24.67" r="3.0" style="fill:#000000;stroke-width:0.264583" />
  <circle cx="55.349999999999994" cy="24.67" r="3.0" style="fill:#000000;stroke-width:0.264583" />
  <circle cx="67.65" cy="24.67" r="3.0" style="fill:#000000;stroke-width:0.264583" />
  <circle cx="75.85" cy="24.67" r="3.0" style="fill:#000000;stroke-width:0.264583" />
  <circle cx="47.15" cy="34.0" r="3.0" style="fill:#000000;stroke-width:0.264583" />
  <circle cx="55.349999999999994" cy="34.0" r="3.0" style="fill:#000000;stroke-width:0.264583" />
  <circle cx="67.65" cy="34.0" r="3.0" style="fill:#000000;stroke-width:0.264583" />
  <circle cx="75.85" cy="34.0" r="3.0" style="fill:#000000;stroke-width:0.264583" />
  <circle cx="61.5" cy="10.665" r="3.0" style="fill:#000000;stroke-width:0.264583" />
  <circle cx="61.5" cy="29.335" r="3.0" style="fill:#000000;stroke-width:0.264583" />
</svg>