<?xml version='1.0' encoding='utf-8'?>
<svg xmlns="http://www.w3.org/2000/svg" width="40" height="82" viewBox="0 0 40 82" version="1.1">
  <rect style="fill:#ff0000;stroke-width:0.264583" width="40" height="41.0" x="0" y="0" />
  <rect style="fill:#ff0000;stroke-width:0.264583" width="40" height="41.0" x="0" y="41.0" />
  <line style="stroke:#000000;stroke-width:2" x1="0" y1="41.0" x2="40" y2="41.0" />
  <circle cx="8.0" cy="8.2" r="3.5" style="fill:#000000;stroke-width:0.264583" />
  <circle cx="32.0" cy="8.2" r="3.5" style="fill:#000000;stroke-width:0.264583" />
  <circle cx="8.0" cy="32.8" r="3.5" style="fill:#000000;stroke-width:0.264583" />
  <circle cx="32.0" cy="32.8" r="3.5" style="fill:#000000;stroke-width:0.264583" />
  <circle cx="8.0" cy="20.5" r="3.5" style="fill:#000000;stroke-width:0.264583" />
  <circle cx="32.0" cy="20.5" r="3.5" style="fill:#000000;stroke-width:0.264583" />
  <circle cx="20.0" cy="8.2" r="3.5" style="fill:#000000;stroke-width:0.264583" />
  <circle cx="20.0" cy="32.8" r="3.5" style="fill:#000000;stroke-width:0.264583" />
  <circle cx="6.0" cy="47.15" r="3.0" style="fill:#000000;stroke-width:0.264583" />
  <circle cx="14.0" cy="47.15" r="3.0" style="fill:#000000;stroke-width:0.264583" />
  <circle cx="26.0" cy="47.15" r="3.0" style="fill:#000000;stroke-width:0.264583" />
  <circle cx="34.0" cy="47.15" r="3.0" style="fill:#000000;stroke-width:0.264583" />
  <circle cx="6.0" cy="56.71325" r="3.0" style="fill:#000000;stroke-width:0.264583" />
  <circle cx="14.0" cy="56.71325" r="3.0" style="fill:#000000;stroke-width:0.264583" />
  <circle cx="26.0" cy="56.71325" r="3.0" style="fill:#000000;stroke-width:0.264583" />
  <circle cx="34.0" cy="56.71325" r="3.0" style="fill:#000000;stroke-width:0.264583" />
  <circle cx="6.0" cy="66.28675" r="3.0" style="fill:#000000;stroke-width:0.264583" />
  <circle cx="14.0" cy="66.28675" r="3.0" style="fill:#000000;stroke-width:0.264583" />
  <circle cx="26.0" cy="66.28675" r="3.0" style="fill:#000000;stroke-width:0.264583" />
  <circle cx="34.0" cy="66.28675" r="3.0" style="fill:#000000;stroke-width:0.264583" />
  <circle cx="6.0" cy="75.85" r="3.0" style="fill:#000000;stroke-width:0.264583" />
  <circle cx="14.0" cy="75.85" r="3.0" style="fill:#000000;stroke-width:0.264583" />
  <circle cx="26.0" cy="75.85" r="3.0" style="fill:#000000;stroke-width:0.264583" />
  <circle cx="34.0" cy="75.85" r="3.0" style="fill:#000000;stroke-width:0.264583" />
  <circle cx="20.0" cy="51.931625" r="3.0" style="fill:#000000;stroke-width:0.264583" />
  <circle cx="20.0" cy="71.068375" r="3.0" style="fill:#000000;stroke-width:0.264583" />
</svg>