<?xml version='1.0' encoding='utf-8'?>
<svg xmlns="http://www.w3.org/2000/svg" width="82" height="40" viewBox="0 0 82 40" version="1.1">
  <rect style="fill:#ff0000;stroke-width:0.264583" width="41.0" height="40" x="0" y="0" />
  <rect style="fill:#ff0000;stroke-width:0.264583" width="41.0" height="40" x="41.0" y="0" />
  <line style="stroke:#000000;stroke-width:2" x1="41.0" y1="0" x2="41.0" y2="40" />
  <circle cx="8.2" cy="8.0" r="3.5" style="fill:#000000;stroke-width:0.264583" />
  <circle cx="32.8" cy="8.0" r="3.5" style="fill:#000000;stroke-width:0.264583" />
  <circle cx="8.2" cy="20.0" r="3.5" style="fill:#000000;stroke-width:0.264583" />
  <circle cx="32.8" cy="20.0" r="3.5" style="fill:#000000;stroke-width:0.264583" />
  <circle cx="8.2" cy="32.0" r="3.5" style="fill:#000000;stroke-width:0.264583" />
  <circle cx="32.8" cy="32.0" r="3.5" style="fill:#000000;stroke-width:0.264583" />
  <circle cx="47.15" cy="7.0" r="3.0" style="fill:#000000;stroke-width:0.264583" />
  <circle cx="54.8375" cy="7.0" r="3.0" style="fill:#000000;stroke-width:0.264583" />
  <circle cx="68.1625" cy="7.0" r="3.0" style="fill:#000000;stroke-width:0.264583" />
  <circle cx="75.85" cy="7.0" r="3.0" style="fill:#000000;stroke-width:0.264583" />
  <circle cx="47.15" cy="13.5" r="3.0" style="fill:#000000;stroke-width:0.264583" />
  <circle cx="54.8375" cy="13.5" r="3.0" style="fill:#000000;stroke-width:0.264583" />
  <circle cx="68.1625" cy="13.5" r="3.0" style="fill:#000000;stroke-width:0.264583" />
  <circle cx="75.85" cy="13.5" r="3.0" style="fill:#000000;stroke-width:0.264583" />
  <circle cx="47.15" cy="26.5" r="3.0" style="fill:#000000;stroke-width:0.264583" />
  <circle cx="54.8375" cy="26.5" r="3.0" style="fill:#000000;stroke-width:0.264583" />
  <circle cx="68.1625" cy="26.5" r="3.0" style="fill:#000000;stroke-width:0.264583" />
  <circle cx="75.85" cy="26.5" r="3.0" style="fill:#000000;stroke-width:0.264583" />
  <circle cx="47.15" cy="33.0" r="3.0" style="fill:#000000;stroke-width:0.264583" />
  <circle cx="54.8375" cy="33.0" r="3.0" style="fill:#000000;stroke-width:0.264583" />
  <circle cx="68.1625" cy="33.0" r="3.0" style="fill:#000000;stroke-width:0.264583" />
  <circle cx="75.85" cy="33.0" r="3.0" style="fill:#000000;stroke-width:0.264583" />
  <circle cx="61.5" cy="20.0" r="3.0" style="fill:#000000;stroke-width:0.264583" />
</svg>