<?xml version="1.0" encoding="UTF-8"?>
<svg xmlns="http://www.w3.org/2000/svg" width="82" height="42" viewBox="0 0 82 42" version="1.1">
  <rect style="fill:#000000;stroke-width:0" width="82" height="42" x="0" y="0"/>
  <g transform="translate(0,1)">
    <rect style="fill:#ff0000;stroke-width:0.264583" width="40" height="40" x="0" y="0"/>
    <circle style="fill:#000000;stroke-width:0.264583" cx="8" cy="8" r="3.5"/>
    <circle style="fill:#000000;stroke-width:0.264583" cx="32" cy="8" r="3.5"/>
    <circle style="fill:#000000;stroke-width:0.264583" cx="8" cy="20" r="3.5"/>
    <circle style="fill:#000000;stroke-width:0.264583" cx="32" cy="20" r="3.5"/>
    <circle style="fill:#000000;stroke-width:0.264583" cx="8" cy="32" r="3.5"/>
    <circle style="fill:#000000;stroke-width:0.264583" cx="32" cy="32" r="3.5"/>
    <circle style="fill:#000000;stroke-width:0.264583" cx="20" cy="8" r="3.5"/>
    <circle style="fill:#000000;stroke-width:0.264583" cx="20" cy="32" r="3.5"/>
    <circle style="fill:#000000;stroke-width:0.264583" cx="20" cy="20" r="3.5"/>
  </g>
  <g transform="translate(42,1)">
    <rect style="fill:#ff0000;stroke-width:0.264583" width="40" height="40" x="0" y="0"/>
    <circle style="fill:#000000;stroke-width:0.264583" cx="6" cy="6" r="3.0"/>
    <circle style="fill:#000000;stroke-width:0.264583" cx="14" cy="6" r="3.0"/>
    <circle style="fill:#000000;stroke-width:0.264583" cx="26" cy="6" r="3.0"/>
    <circle style="fill:#000000;stroke-width:0.264583" cx="34" cy="6" r="3.0"/>
    <circle style="fill:#000000;stroke-width:0.264583" cx="6" cy="15.33" r="3.0"/>
    <circle style="fill:#000000;stroke-width:0.264583" cx="14" cy="15.33" r="3.0"/>
    <circle style="fill:#000000;stroke-width:0.264583" cx="26" cy="15.33" r="3.0"/>
    <circle style="fill:#000000;stroke-width:0.264583" cx="34" cy="15.33" r="3.0"/>
    <circle style="fill:#000000;stroke-width:0.264583" cx="6" cy="24.67" r="3.0"/>
    <circle style="fill:#000000;stroke-width:0.264583" cx="14" cy="24.67" r="3.0"/>
    <circle style="fill:#000000;stroke-width:0.264583" cx="26" cy="24.67" r="3.0"/>
    <circle style="fill:#000000;stroke-width:0.264583" cx="34" cy="24.67" r="3.0"/>
    <circle style="fill:#000000;stroke-width:0.264583" cx="6" cy="34" r="3.0"/>
    <circle style="fill:#000000;stroke-width:0.264583" cx="14" cy="34" r="3.0"/>
    <circle style="fill:#000000;stroke-width:0.264583" cx="26" cy="34" r="3.0"/>
    <circle style="fill:#000000;stroke-width:0.264583" cx="34" cy="34" r="3.0"/>
    <circle style="fill:#000000;stroke-width:0.264583" cx="20" cy="10.665" r="3.0"/>
    <circle style="fill:#000000;stroke-width:0.264583" cx="20" cy="29.335" r="3.0"/>
  </g>
</svg>