<?xml version='1.0' encoding='utf-8'?>
<svg xmlns="http://www.w3.org/2000/svg" width="82" height="40" viewBox="0 0 82 40" version="1.1">
  <rect style="fill:#ff0000;stroke-width:0.264583" width="41.0" height="40" x="0" y="0" />
  <rect style="fill:#ff0000;stroke-width:0.264583" width="41.0" height="40" x="41.0" y="0" />
  <line style="stroke:#000000;stroke-width:2" x1="41.0" y1="0" x2="41.0" y2="40" />
  <circle cx="7.174999999999999" cy="8.0" r="3.5" style="fill:#000000;stroke-width:0.264583" />
  <circle cx="15.8875" cy="8.0" r="3.5" style="fill:#000000;stroke-width:0.264583" />
  <circle cx="25.112499999999997" cy="8.0" r="3.5" style="fill:#000000;stroke-width:0.264583" />
  <circle cx="33.824999999999996" cy="8.0" r="3.5" style="fill:#000000;stroke-width:0.264583" />
  <circle cx="7.174999999999999" cy="20.0" r="3.5" style="fill:#000000;stroke-width:0.264583" />
  <circle cx="33.824999999999996" cy="20.0" r="3.5" style="fill:#000000;stroke-width:0.264583" />
  <circle cx="7.174999999999999" cy="32.0" r="3.5" style="fill:#000000;stroke-width:0.264583" />
  <circle cx="15.8875" cy="32.0" r="3.5" style="fill:#000000;stroke-width:0.264583" />
  <circle cx="25.112499999999997" cy="32.0" r="3.5" style="fill:#000000;stroke-width:0.264583" />
  <circle cx="33.824999999999996" cy="32.0" r="3.5" style="fill:#000000;stroke-width:0.264583" />
  <circle cx="49.2" cy="8.0" r="3.5" style="fill:#000000;stroke-width:0.264583" />
  <circle cx="73.8" cy="8.0" r="3.5" style="fill:#000000;stroke-width:0.264583" />
  <circle cx="49.2" cy="20.0" r="3.5" style="fill:#000000;stroke-width:0.264583" />
  <circle cx="73.8" cy="20.0" r="3.5" style="fill:#000000;stroke-width:0.264583" />
  <circle cx="49.2" cy="32.0" r="3.5" style="fill:#000000;stroke-width:0.264583" />
  <circle cx="73.8" cy="32.0" r="3.5" style="fill:#000000;stroke-width:0.264583" />
</svg>