<?xml version='1.0' encoding='utf-8'?>
<svg xmlns="http://www.w3.org/2000/svg" width="40" height="82" viewBox="0 0 40 82" version="1.1">
  <rect style="fill:#ff0000;stroke-width:0.264583" width="40" height="41.0" x="0" y="0" />
  <rect style="fill:#ff0000;stroke-width:0.264583" width="40" height="41.0" x="0" y="41.0" />
  <line style="stroke:#000000;stroke-width:2" x1="0" y1="41.0" x2="40" y2="41.0" />
  <circle cx="6.0" cy="7.174999999999999" r="3.0" style="fill:#000000;stroke-width:0.264583" />
  <circle cx="13.5" cy="7.174999999999999" r="3.0" style="fill:#000000;stroke-width:0.264583" />
  <circle cx="26.5" cy="7.174999999999999" r="3.0" style="fill:#000000;stroke-width:0.264583" />
  <circle cx="34.0" cy="7.174999999999999" r="3.0" style="fill:#000000;stroke-width:0.264583" />
  <circle cx="6.0" cy="13.837499999999999" r="3.0" style="fill:#000000;stroke-width:0.264583" />
  <circle cx="13.5" cy="13.837499999999999" r="3.0" style="fill:#000000;stroke-width:0.264583" />
  <circle cx="26.5" cy="13.837499999999999" r="3.0" style="fill:#000000;stroke-width:0.264583" />
  <circle cx="34.0" cy="13.837499999999999" r="3.0" style="fill:#000000;stroke-width:0.264583" />
  <circle cx="6.0" cy="27.162499999999998" r="3.0" style="fill:#000000;stroke-width:0.264583" />
  <circle cx="13.5" cy="27.162499999999998" r="3.0" style="fill:#000000;stroke-width:0.264583" />
  <circle cx="26.5" cy="27.162499999999998" r="3.0" style="fill:#000000;stroke-width:0.264583" />
  <circle cx="34.0" cy="27.162499999999998" r="3.0" style="fill:#000000;stroke-width:0.264583" />
  <circle cx="6.0" cy="33.824999999999996" r="3.0" style="fill:#000000;stroke-width:0.264583" />
  <circle cx="13.5" cy="33.824999999999996" r="3.0" style="fill:#000000;stroke-width:0.264583" />
  <circle cx="26.5" cy="33.824999999999996" r="3.0" style="fill:#000000;stroke-width:0.264583" />
  <circle cx="34.0" cy="33.824999999999996" r="3.0" style="fill:#000000;stroke-width:0.264583" />
  <circle cx="20.0" cy="20.5" r="3.0" style="fill:#000000;stroke-width:0.264583" />
  <circle cx="7.0" cy="47.15" r="3.0" style="fill:#000000;stroke-width:0.264583" />
  <circle cx="15.5" cy="47.15" r="3.0" style="fill:#000000;stroke-width:0.264583" />
  <circle cx="24.5" cy="47.15" r="3.0" style="fill:#000000;stroke-width:0.264583" />
  <circle cx="33.0" cy="47.15" r="3.0" style="fill:#000000;stroke-width:0.264583" />
  <circle cx="7.0" cy="55.349999999999994" r="3.0" style="fill:#000000;stroke-width:0.264583" />
  <circle cx="15.5" cy="55.349999999999994" r="3.0" style="fill:#000000;stroke-width:0.264583" />
  <circle cx="24.5" cy="55.349999999999994" r="3.0" style="fill:#000000;stroke-width:0.264583" />
  <circle cx="33.0" cy="55.349999999999994" r="3.0" style="fill:#000000;stroke-width:0.264583" />
  <circle cx="7.0" cy="65.6" r="3.0" style="fill:#000000;stroke-width:0.264583" />
  <circle cx="15.5" cy="65.6" r="3.0" style="fill:#000000;stroke-width:0.264583" />
  <circle cx="24.5" cy="65.6" r="3.0" style="fill:#000000;stroke-width:0.264583" />
  <circle cx="33.0" cy="65.6" r="3.0" style="fill:#000000;stroke-width:0.264583" />
  <circle cx="11.25" cy="75.85" r="3.0" style="fill:#000000;stroke-width:0.264583" />
  <circle cx="28.25" cy="75.85" r="3.0" style="fill:#000000;stroke-width:0.264583" />
</svg>