<?xml version="1.0" encoding="UTF-8"?>
<svg xmlns="http://www.w3.org/2000/svg" width="42" height="82" viewBox="0 0 42 82" version="1.1">
  <rect style="fill:#000000;stroke-width:0" width="42" height="82" x="0" y="0"/>
  <g transform="translate(1,0)">
    <rect style="fill:#ff0000;stroke-width:0.264583" width="40" height="40" x="0" y="0"/>
    <circle style="fill:#000000;stroke-width:0.264583" cx="7" cy="6" r="3.0"/>
    <circle style="fill:#000000;stroke-width:0.264583" cx="15.5" cy="6" r="3.0"/>
    <circle style="fill:#000000;stroke-width:0.264583" cx="24.5" cy="6" r="3.0"/>
    <circle style="fill:#000000;stroke-width:0.264583" cx="33" cy="6" r="3.0"/>
    <circle style="fill:#000000;stroke-width:0.264583" cx="7" cy="14" r="3.0"/>
    <circle style="fill:#000000;stroke-width:0.264583" cx="15.5" cy="14" r="3.0"/>
    <circle style="fill:#000000;stroke-width:0.264583" cx="24.5" cy="14" r="3.0"/>
    <circle style="fill:#000000;stroke-width:0.264583" cx="33" cy="14" r="3.0"/>
    <circle style="fill:#000000;stroke-width:0.264583" cx="7" cy="24" r="3.0"/>
    <circle style="fill:#000000;stroke-width:0.264583" cx="15.5" cy="24" r="3.0"/>
    <circle style="fill:#000000;stroke-width:0.264583" cx="24.5" cy="24" r="3.0"/>
    <circle style="fill:#000000;stroke-width:0.264583" cx="33" cy="24" r="3.0"/>
    <circle style="fill:#000000;stroke-width:0.264583" cx="11.25" cy="34" r="3.0"/>
    <circle style="fill:#000000;stroke-width:0.264583" cx="20" cy="34" r="3.0"/>
    <circle style="fill:#000000;stroke-width:0.264583" cx="28.25" cy="34" r="3.0"/>
  </g>
  <g transform="translate(1,42)">
    <rect style="fill:#ff0000;stroke-width:0.264583" width="40" height="40" x="0" y="0"/>
    <circle style="fill:#000000;stroke-width:0.264583" cx="7" cy="6" r="3.0"/>
    <circle style="fill:#000000;stroke-width:0.264583" cx="15.5" cy="6" r="3.0"/>
    <circle style="fill:#000000;stroke-width:0.264583" cx="24.5" cy="6" r="3.0"/>
    <circle style="fill:#000000;stroke-width:0.264583" cx="33" cy="6" r="3.0"/>
    <circle style="fill:#000000;stroke-width:0.264583" cx="7" cy="14" r="3.0"/>
    <circle style="fill:#000000;stroke-width:0.264583" cx="15.5" cy="14" r="3.0"/>
    <circle style="fill:#000000;stroke-width:0.264583" cx="24.5" cy="14" r="3.0"/>
    <circle style="fill:#000000;stroke-width:0.264583" cx="33" cy="14" r="3.0"/>
    <circle style="fill:#000000;stroke-width:0.264583" cx="7" cy="24" r="3.0"/>
    <circle style="fill:#000000;stroke-width:0.264583" cx="15.5" cy="24" r="3.0"/>
    <circle style="fill:#000000;stroke-width:0.264583" cx="24.5" cy="24" r="3.0"/>
    <circle style="fill:#000000;stroke-width:0.264583" cx="33" cy="24" r="3.0"/>
    <circle style="fill:#000000;stroke-width:0.264583" cx="11.25" cy="34" r="3.0"/>
    <circle style="fill:#000000;stroke-width:0.264583" cx="20" cy="34" r="3.0"/>
    <circle style="fill:#000000;stroke-width:0.264583" cx="28.25" cy="34" r="3.0"/>
  </g>
</svg>