<?xml version="1.0" encoding="UTF-8"?>
<svg xmlns="http://www.w3.org/2000/svg" width="42" height="82" viewBox="0 0 42 82" version="1.1">
  <rect style="fill:#000000;stroke-width:0" width="42" height="82" x="0" y="0"/>
  <g transform="translate(1,0)">
    <rect style="fill:#ff0000;stroke-width:0.264583" width="40" height="40" x="0" y="0"/>
    <circle style="fill:#000000;stroke-width:0.264583" cx="8" cy="8" r="3.5"/>
    <circle style="fill:#000000;stroke-width:0.264583" cx="32" cy="8" r="3.5"/>
    <circle style="fill:#000000;stroke-width:0.264583" cx="8" cy="20" r="3.5"/>
    <circle style="fill:#000000;stroke-width:0.264583" cx="32" cy="20" r="3.5"/>
    <circle style="fill:#000000;stroke-width:0.264583" cx="8" cy="32" r="3.5"/>
    <circle style="fill:#000000;stroke-width:0.264583" cx="32" cy="32" r="3.5"/>
  </g>
  <g transform="translate(1,42)">
    <rect style="fill:#ff0000;stroke-width:0.264583" width="40" height="40" x="0" y="0"/>
    <circle style="fill:#000000;stroke-width:0.264583" cx="7" cy="8" r="3.5"/>
    <circle style="fill:#000000;stroke-width:0.264583" cx="15.5" cy="8" r="3.5"/>
    <circle style="fill:#000000;stroke-width:0.264583" cx="24.5" cy="8" r="3.5"/>
    <circle style="fill:#000000;stroke-width:0.264583" cx="33" cy="8" r="3.5"/>
    <circle style="fill:#000000;stroke-width:0.264583" cx="7" cy="20" r="3.5"/>
    <circle style="fill:#000000;stroke-width:0.264583" cx="15.5" cy="20" r="3.5"/>
    <circle style="fill:#000000;stroke-width:0.264583" cx="24.5" cy="20" r="3.5"/>
    <circle style="fill:#000000;stroke-width:0.264583" cx="33" cy="20" r="3.5"/>
    <circle style="fill:#000000;stroke-width:0.264583" cx="7" cy="32" r="3.5"/>
    <circle style="fill:#000000;stroke-width:0.264583" cx="15.5" cy="32" r="3.5"/>
    <circle style="fill:#000000;stroke-width:0.264583" cx="24.5" cy="32" r="3.5"/>
    <circle style="fill:#000000;stroke-width:0.264583" cx="33" cy="32" r="3.5"/>
  </g>
</svg>