{
	"asset":{
		"generator":"Khronos glTF Blender I/O v4.3.47",
		"version":"2.0"
	},
	"scene":0,
	"scenes":[
		{
			"name":"Scene",
			"nodes":[
				4
			]
		}
	],
	"nodes":[
		{
			"mesh":0,
			"name":"SurfSphere_001",
			"scale":[
				0.20000000298023224,
				0.4000000059604645,
				0.20000000298023224
			],
			"translation":[
				-0.75,
				1,
				-0.75
			]
		},
		{
			"mesh":1,
			"name":"SurfSphere_002",
			"scale":[
				0.20000000298023224,
				0.4000000059604645,
				0.20000000298023224
			],
			"translation":[
				0,
				1,
				0
			]
		},
		{
			"mesh":2,
			"name":"SurfSphere_003",
			"scale":[
				0.20000000298023224,
				0.4000000059604645,
				0.20000000298023224
			],
			"translation":[
				0.75,
				1,
				0.75
			]
		},
		{
			"children":[
				0,
				1,
				2
			],
			"mesh":3,
			"name":"Cube",
			"scale":[
				1,
				0.5,
				1
			],
			"translation":[
				1,
				0,
				-1
			]
		},
		{
			"children":[
				3
			],
			"name":"D12"
		}
	],
	"materials":[
		{
			"name":"Material_1",
			"normalTexture":{
				"index":0
			},
			"pbrMetallicRoughness":{
				"baseColorFactor":[
					0,
					0,
					0,
					1
				],
				"metallicFactor":0,
				"metallicRoughnessTexture":{
					"index":1
				}
			}
		},
		{
			"doubleSided":true,
			"name":"Material_Domino",
			"pbrMetallicRoughness":{
				"metallicFactor":0
			}
		}
	],
	"meshes":[
		{
			"name":"Mesh_1",
			"primitives":[
				{
					"attributes":{
						"POSITION":0,
						"NORMAL":1,
						"TEXCOORD_0":2,
						"TANGENT":3
					},
					"indices":4,
					"material":0
				}
			]
		},
		{
			"name":"Mesh_2",
			"primitives":[
				{
					"attributes":{
						"POSITION":5,
						"NORMAL":6,
						"TEXCOORD_0":7,
						"TANGENT":8
					},
					"indices":9,
					"material":0
				}
			]
		},
		{
			"name":"Mesh_3",
			"primitives":[
				{
					"attributes":{
						"POSITION":10,
						"NORMAL":11,
						"TEXCOORD_0":12,
						"TANGENT":13
					},
					"indices":9,
					"material":0
				}
			]
		},
		{
			"name":"Mesh_0",
			"primitives":[
				{
					"attributes":{
						"POSITION":14,
						"NORMAL":15,
						"TEXCOORD_0":16,
						"TANGENT":17
					},
					"indices":18,
					"material":1
				}
			]
		}
	],
	"textures":[
		{
			"sampler":0,
			"source":0
		},
		{
			"sampler":0,
			"source":1
		}
	],
	"images":[
		{
			"mimeType":"image/png",
			"name":"_normal000.png",
			"uri":"../../common/tiles/textures/_normal000.png"
		},
		{
			"mimeType":"image/png",
			"name":"_orm000.png",
			"uri":"../../common/tiles/textures/_orm000.png"
		}
	],
	"accessors":[
		{
			"bufferView":0,
			"componentType":5126,
			"count":660,
			"max":[
				0.9971463680267334,
				0.9999998807907104,
				0.9971465468406677
			],
			"min":[
				-0.9971466064453125,
				-1.0000001192092896,
				-0.9971464276313782
			],
			"type":"VEC3"
		},
		{
			"bufferView":1,
			"componentType":5126,
			"count":660,
			"type":"VEC3"
		},
		{
			"bufferView":2,
			"componentType":5126,
			"count":660,
			"type":"VEC2"
		},
		{
			"bufferView":3,
			"componentType":5126,
			"count":660,
			"type":"VEC4"
		},
		{
			"bufferView":4,
			"componentType":5123,
			"count":3648,
			"type":"SCALAR"
		},
		{
			"bufferView":5,
			"componentType":5126,
			"count":660,
			"max":[
				0.9971464276313782,
				1,
				0.997146487236023
			],
			"min":[
				-0.9971466064453125,
				-1.0000001192092896,
				-0.9971464276313782
			],
			"type":"VEC3"
		},
		{
			"bufferView":6,
			"componentType":5126,
			"count":660,
			"type":"VEC3"
		},
		{
			"bufferView":7,
			"componentType":5126,
			"count":660,
			"type":"VEC2"
		},
		{
			"bufferView":8,
			"componentType":5126,
			"count":660,
			"type":"VEC4"
		},
		{
			"bufferView":9,
			"componentType":5123,
			"count":3648,
			"type":"SCALAR"
		},
		{
			"bufferView":10,
			"componentType":5126,
			"count":660,
			"max":[
				0.9971464276313782,
				1,
				0.997146487236023
			],
			"min":[
				-0.9971466064453125,
				-1.0000001192092896,
				-0.9971464276313782
			],
			"type":"VEC3"
		},
		{
			"bufferView":11,
			"componentType":5126,
			"count":660,
			"type":"VEC3"
		},
		{
			"bufferView":12,
			"componentType":5126,
			"count":660,
			"type":"VEC2"
		},
		{
			"bufferView":13,
			"componentType":5126,
			"count":660,
			"type":"VEC4"
		},
		{
			"bufferView":14,
			"componentType":5126,
			"count":14,
			"max":[
				1,
				1,
				1
			],
			"min":[
				-1,
				-1,
				-1
			],
			"type":"VEC3"
		},
		{
			"bufferView":15,
			"componentType":5126,
			"count":14,
			"type":"VEC3"
		},
		{
			"bufferView":16,
			"componentType":5126,
			"count":14,
			"type":"VEC2"
		},
		{
			"bufferView":17,
			"componentType":5126,
			"count":14,
			"type":"VEC4"
		},
		{
			"bufferView":18,
			"componentType":5123,
			"count":36,
			"type":"SCALAR"
		}
	],
	"bufferViews":[
		{
			"buffer":0,
			"byteLength":7920,
			"byteOffset":0,
			"target":34962
		},
		{
			"buffer":0,
			"byteLength":7920,
			"byteOffset":7920,
			"target":34962
		},
		{
			"buffer":0,
			"byteLength":5280,
			"byteOffset":15840,
			"target":34962
		},
		{
			"buffer":0,
			"byteLength":10560,
			"byteOffset":21120,
			"target":34962
		},
		{
			"buffer":0,
			"byteLength":7296,
			"byteOffset":31680,
			"target":34963
		},
		{
			"buffer":0,
			"byteLength":7920,
			"byteOffset":38976,
			"target":34962
		},
		{
			"buffer":0,
			"byteLength":7920,
			"byteOffset":46896,
			"target":34962
		},
		{
			"buffer":0,
			"byteLength":5280,
			"byteOffset":54816,
			"target":34962
		},
		{
			"buffer":0,
			"byteLength":10560,
			"byteOffset":60096,
			"target":34962
		},
		{
			"buffer":0,
			"byteLength":7296,
			"byteOffset":70656,
			"target":34963
		},
		{
			"buffer":0,
			"byteLength":7920,
			"byteOffset":77952,
			"target":34962
		},
		{
			"buffer":0,
			"byteLength":7920,
			"byteOffset":85872,
			"target":34962
		},
		{
			"buffer":0,
			"byteLength":5280,
			"byteOffset":93792,
			"target":34962
		},
		{
			"buffer":0,
			"byteLength":10560,
			"byteOffset":99072,
			"target":34962
		},
		{
			"buffer":0,
			"byteLength":168,
			"byteOffset":109632,
			"target":34962
		},
		{
			"buffer":0,
			"byteLength":168,
			"byteOffset":109800,
			"target":34962
		},
		{
			"buffer":0,
			"byteLength":112,
			"byteOffset":109968,
			"target":34962
		},
		{
			"buffer":0,
			"byteLength":224,
			"byteOffset":110080,
			"target":34962
		},
		{
			"buffer":0,
			"byteLength":72,
			"byteOffset":110304,
			"target":34963
		}
	],
	"samplers":[
		{
			"magFilter":9729,
			"minFilter":9987
		}
	],
	"buffers":[
		{
			"byteLength":110376,
			"uri":"D03-b36a89b3676ab91c0a2591afd0946d0a.bin"
		}
	]
}
