{
	"asset":{
		"generator":"Khronos glTF Blender I/O v4.3.47",
		"version":"2.0"
	},
	"scene":0,
	"scenes":[
		{
			"name":"Scene",
			"nodes":[
				10
			]
		}
	],
	"nodes":[
		{
			"mesh":0,
			"name":"SurfSphere_001",
			"scale":[
				0.20000000298023224,
				0.4000000059604645,
				0.20000000298023224
			],
			"translation":[
				-0.75,
				1,
				0.75
			]
		},
		{
			"mesh":1,
			"name":"SurfSphere_002",
			"scale":[
				0.20000000298023224,
				0.4000000059604645,
				0.20000000298023224
			],
			"translation":[
				0.75,
				1,
				0.75
			]
		},
		{
			"mesh":2,
			"name":"SurfSphere_002.001",
			"scale":[
				0.20000000298023224,
				0.4000000059604645,
				0.20000000298023224
			],
			"translation":[
				0,
				1,
				0.75
			]
		},
		{
			"mesh":3,
			"name":"SurfSphere_003",
			"scale":[
				0.20000000298023224,
				0.4000000059604645,
				0.20000000298023224
			],
			"translation":[
				-0.75,
				1,
				0
			]
		},
		{
			"mesh":4,
			"name":"SurfSphere_004",
			"scale":[
				0.20000000298023224,
				0.4000000059604645,
				0.20000000298023224
			],
			"translation":[
				0.75,
				1,
				0
			]
		},
		{
			"mesh":5,
			"name":"SurfSphere_004.001",
			"scale":[
				0.20000000298023224,
				0.4000000059604645,
				0.20000000298023224
			],
			"translation":[
				0,
				1,
				0
			]
		},
		{
			"mesh":6,
			"name":"SurfSphere_005",
			"scale":[
				0.20000000298023224,
				0.4000000059604645,
				0.20000000298023224
			],
			"translation":[
				-0.75,
				1,
				-0.75
			]
		},
		{
			"mesh":7,
			"name":"SurfSphere_006",
			"scale":[
				0.20000000298023224,
				0.4000000059604645,
				0.20000000298023224
			],
			"translation":[
				0.75,
				1,
				-0.75
			]
		},
		{
			"mesh":8,
			"name":"SurfSphere_006.001",
			"scale":[
				0.20000000298023224,
				0.4000000059604645,
				0.20000000298023224
			],
			"translation":[
				0,
				1,
				-0.75
			]
		},
		{
			"children":[
				0,
				1,
				2,
				3,
				4,
				5,
				6,
				7,
				8
			],
			"mesh":9,
			"name":"Cube",
			"scale":[
				1,
				0.5,
				1
			],
			"translation":[
				1,
				0,
				-1
			]
		},
		{
			"children":[
				9
			],
			"name":"D09"
		}
	],
	"materials":[
		{
			"name":"Material_1",
			"normalTexture":{
				"index":0
			},
			"pbrMetallicRoughness":{
				"baseColorFactor":[
					0,
					0,
					0,
					1
				],
				"metallicFactor":0,
				"metallicRoughnessTexture":{
					"index":1
				}
			}
		},
		{
			"doubleSided":true,
			"name":"Material_Domino",
			"pbrMetallicRoughness":{
				"metallicFactor":0
			}
		}
	],
	"meshes":[
		{
			"name":"Mesh_1",
			"primitives":[
				{
					"attributes":{
						"POSITION":0,
						"NORMAL":1,
						"TEXCOORD_0":2,
						"TANGENT":3
					},
					"indices":4,
					"material":0
				}
			]
		},
		{
			"name":"Mesh_2",
			"primitives":[
				{
					"attributes":{
						"POSITION":5,
						"NORMAL":6,
						"TEXCOORD_0":7,
						"TANGENT":8
					},
					"indices":9,
					"material":0
				}
			]
		},
		{
			"name":"Mesh_2.001",
			"primitives":[
				{
					"attributes":{
						"POSITION":10,
						"NORMAL":11,
						"TEXCOORD_0":12,
						"TANGENT":13
					},
					"indices":9,
					"material":0
				}
			]
		},
		{
			"name":"Mesh_3",
			"primitives":[
				{
					"attributes":{
						"POSITION":14,
						"NORMAL":15,
						"TEXCOORD_0":16,
						"TANGENT":17
					},
					"indices":9,
					"material":0
				}
			]
		},
		{
			"name":"Mesh_4",
			"primitives":[
				{
					"attributes":{
						"POSITION":18,
						"NORMAL":19,
						"TEXCOORD_0":20,
						"TANGENT":21
					},
					"indices":9,
					"material":0
				}
			]
		},
		{
			"name":"Mesh_4.003",
			"primitives":[
				{
					"attributes":{
						"POSITION":22,
						"NORMAL":23,
						"TEXCOORD_0":24,
						"TANGENT":25
					},
					"indices":9,
					"material":0
				}
			]
		},
		{
			"name":"Mesh_5",
			"primitives":[
				{
					"attributes":{
						"POSITION":26,
						"NORMAL":27,
						"TEXCOORD_0":28,
						"TANGENT":29
					},
					"indices":9,
					"material":0
				}
			]
		},
		{
			"name":"Mesh_6",
			"primitives":[
				{
					"attributes":{
						"POSITION":30,
						"NORMAL":31,
						"TEXCOORD_0":32,
						"TANGENT":33
					},
					"indices":9,
					"material":0
				}
			]
		},
		{
			"name":"Mesh_6.001",
			"primitives":[
				{
					"attributes":{
						"POSITION":34,
						"NORMAL":35,
						"TEXCOORD_0":36,
						"TANGENT":37
					},
					"indices":9,
					"material":0
				}
			]
		},
		{
			"name":"Mesh_0",
			"primitives":[
				{
					"attributes":{
						"POSITION":38,
						"NORMAL":39,
						"TEXCOORD_0":40,
						"TANGENT":41
					},
					"indices":42,
					"material":1
				}
			]
		}
	],
	"textures":[
		{
			"sampler":0,
			"source":0
		},
		{
			"sampler":0,
			"source":1
		}
	],
	"images":[
		{
			"mimeType":"image/png",
			"name":"_normal000.png",
			"uri":"../../common/tiles/textures/_normal000.png"
		},
		{
			"mimeType":"image/png",
			"name":"_orm000.png",
			"uri":"../../common/tiles/textures/_orm000.png"
		}
	],
	"accessors":[
		{
			"bufferView":0,
			"componentType":5126,
			"count":660,
			"max":[
				0.9971463680267334,
				0.9999998807907104,
				0.9971465468406677
			],
			"min":[
				-0.9971466064453125,
				-1.0000001192092896,
				-0.9971464276313782
			],
			"type":"VEC3"
		},
		{
			"bufferView":1,
			"componentType":5126,
			"count":660,
			"type":"VEC3"
		},
		{
			"bufferView":2,
			"componentType":5126,
			"count":660,
			"type":"VEC2"
		},
		{
			"bufferView":3,
			"componentType":5126,
			"count":660,
			"type":"VEC4"
		},
		{
			"bufferView":4,
			"componentType":5123,
			"count":3648,
			"type":"SCALAR"
		},
		{
			"bufferView":5,
			"componentType":5126,
			"count":660,
			"max":[
				0.9971464276313782,
				1,
				0.997146487236023
			],
			"min":[
				-0.9971466064453125,
				-1.0000001192092896,
				-0.9971464276313782
			],
			"type":"VEC3"
		},
		{
			"bufferView":6,
			"componentType":5126,
			"count":660,
			"type":"VEC3"
		},
		{
			"bufferView":7,
			"componentType":5126,
			"count":660,
			"type":"VEC2"
		},
		{
			"bufferView":8,
			"componentType":5126,
			"count":660,
			"type":"VEC4"
		},
		{
			"bufferView":9,
			"componentType":5123,
			"count":3648,
			"type":"SCALAR"
		},
		{
			"bufferView":10,
			"componentType":5126,
			"count":660,
			"max":[
				0.9971464276313782,
				1,
				0.997146487236023
			],
			"min":[
				-0.9971466064453125,
				-1.0000001192092896,
				-0.9971464276313782
			],
			"type":"VEC3"
		},
		{
			"bufferView":11,
			"componentType":5126,
			"count":660,
			"type":"VEC3"
		},
		{
			"bufferView":12,
			"componentType":5126,
			"count":660,
			"type":"VEC2"
		},
		{
			"bufferView":13,
			"componentType":5126,
			"count":660,
			"type":"VEC4"
		},
		{
			"bufferView":14,
			"componentType":5126,
			"count":660,
			"max":[
				0.9971464276313782,
				1,
				0.997146487236023
			],
			"min":[
				-0.9971466064453125,
				-1.0000001192092896,
				-0.9971464276313782
			],
			"type":"VEC3"
		},
		{
			"bufferView":15,
			"componentType":5126,
			"count":660,
			"type":"VEC3"
		},
		{
			"bufferView":16,
			"componentType":5126,
			"count":660,
			"type":"VEC2"
		},
		{
			"bufferView":17,
			"componentType":5126,
			"count":660,
			"type":"VEC4"
		},
		{
			"bufferView":18,
			"componentType":5126,
			"count":660,
			"max":[
				0.9971464276313782,
				1,
				0.997146487236023
			],
			"min":[
				-0.9971466064453125,
				-1.0000001192092896,
				-0.9971464276313782
			],
			"type":"VEC3"
		},
		{
			"bufferView":19,
			"componentType":5126,
			"count":660,
			"type":"VEC3"
		},
		{
			"bufferView":20,
			"componentType":5126,
			"count":660,
			"type":"VEC2"
		},
		{
			"bufferView":21,
			"componentType":5126,
			"count":660,
			"type":"VEC4"
		},
		{
			"bufferView":22,
			"componentType":5126,
			"count":660,
			"max":[
				0.9971464276313782,
				1,
				0.997146487236023
			],
			"min":[
				-0.9971466064453125,
				-1.0000001192092896,
				-0.9971464276313782
			],
			"type":"VEC3"
		},
		{
			"bufferView":23,
			"componentType":5126,
			"count":660,
			"type":"VEC3"
		},
		{
			"bufferView":24,
			"componentType":5126,
			"count":660,
			"type":"VEC2"
		},
		{
			"bufferView":25,
			"componentType":5126,
			"count":660,
			"type":"VEC4"
		},
		{
			"bufferView":26,
			"componentType":5126,
			"count":660,
			"max":[
				0.9971464276313782,
				1,
				0.997146487236023
			],
			"min":[
				-0.9971466064453125,
				-1.0000001192092896,
				-0.9971464276313782
			],
			"type":"VEC3"
		},
		{
			"bufferView":27,
			"componentType":5126,
			"count":660,
			"type":"VEC3"
		},
		{
			"bufferView":28,
			"componentType":5126,
			"count":660,
			"type":"VEC2"
		},
		{
			"bufferView":29,
			"componentType":5126,
			"count":660,
			"type":"VEC4"
		},
		{
			"bufferView":30,
			"componentType":5126,
			"count":660,
			"max":[
				0.9971464276313782,
				1,
				0.997146487236023
			],
			"min":[
				-0.9971466064453125,
				-1.0000001192092896,
				-0.9971464276313782
			],
			"type":"VEC3"
		},
		{
			"bufferView":31,
			"componentType":5126,
			"count":660,
			"type":"VEC3"
		},
		{
			"bufferView":32,
			"componentType":5126,
			"count":660,
			"type":"VEC2"
		},
		{
			"bufferView":33,
			"componentType":5126,
			"count":660,
			"type":"VEC4"
		},
		{
			"bufferView":34,
			"componentType":5126,
			"count":660,
			"max":[
				0.9971464276313782,
				1,
				0.997146487236023
			],
			"min":[
				-0.9971466064453125,
				-1.0000001192092896,
				-0.9971464276313782
			],
			"type":"VEC3"
		},
		{
			"bufferView":35,
			"componentType":5126,
			"count":660,
			"type":"VEC3"
		},
		{
			"bufferView":36,
			"componentType":5126,
			"count":660,
			"type":"VEC2"
		},
		{
			"bufferView":37,
			"componentType":5126,
			"count":660,
			"type":"VEC4"
		},
		{
			"bufferView":38,
			"componentType":5126,
			"count":14,
			"max":[
				1,
				1,
				1
			],
			"min":[
				-1,
				-1,
				-1
			],
			"type":"VEC3"
		},
		{
			"bufferView":39,
			"componentType":5126,
			"count":14,
			"type":"VEC3"
		},
		{
			"bufferView":40,
			"componentType":5126,
			"count":14,
			"type":"VEC2"
		},
		{
			"bufferView":41,
			"componentType":5126,
			"count":14,
			"type":"VEC4"
		},
		{
			"bufferView":42,
			"componentType":5123,
			"count":36,
			"type":"SCALAR"
		}
	],
	"bufferViews":[
		{
			"buffer":0,
			"byteLength":7920,
			"byteOffset":0,
			"target":34962
		},
		{
			"buffer":0,
			"byteLength":7920,
			"byteOffset":7920,
			"target":34962
		},
		{
			"buffer":0,
			"byteLength":5280,
			"byteOffset":15840,
			"target":34962
		},
		{
			"buffer":0,
			"byteLength":10560,
			"byteOffset":21120,
			"target":34962
		},
		{
			"buffer":0,
			"byteLength":7296,
			"byteOffset":31680,
			"target":34963
		},
		{
			"buffer":0,
			"byteLength":7920,
			"byteOffset":38976,
			"target":34962
		},
		{
			"buffer":0,
			"byteLength":7920,
			"byteOffset":46896,
			"target":34962
		},
		{
			"buffer":0,
			"byteLength":5280,
			"byteOffset":54816,
			"target":34962
		},
		{
			"buffer":0,
			"byteLength":10560,
			"byteOffset":60096,
			"target":34962
		},
		{
			"buffer":0,
			"byteLength":7296,
			"byteOffset":70656,
			"target":34963
		},
		{
			"buffer":0,
			"byteLength":7920,
			"byteOffset":77952,
			"target":34962
		},
		{
			"buffer":0,
			"byteLength":7920,
			"byteOffset":85872,
			"target":34962
		},
		{
			"buffer":0,
			"byteLength":5280,
			"byteOffset":93792,
			"target":34962
		},
		{
			"buffer":0,
			"byteLength":10560,
			"byteOffset":99072,
			"target":34962
		},
		{
			"buffer":0,
			"byteLength":7920,
			"byteOffset":109632,
			"target":34962
		},
		{
			"buffer":0,
			"byteLength":7920,
			"byteOffset":117552,
			"target":34962
		},
		{
			"buffer":0,
			"byteLength":5280,
			"byteOffset":125472,
			"target":34962
		},
		{
			"buffer":0,
			"byteLength":10560,
			"byteOffset":130752,
			"target":34962
		},
		{
			"buffer":0,
			"byteLength":7920,
			"byteOffset":141312,
			"target":34962
		},
		{
			"buffer":0,
			"byteLength":7920,
			"byteOffset":149232,
			"target":34962
		},
		{
			"buffer":0,
			"byteLength":5280,
			"byteOffset":157152,
			"target":34962
		},
		{
			"buffer":0,
			"byteLength":10560,
			"byteOffset":162432,
			"target":34962
		},
		{
			"buffer":0,
			"byteLength":7920,
			"byteOffset":172992,
			"target":34962
		},
		{
			"buffer":0,
			"byteLength":7920,
			"byteOffset":180912,
			"target":34962
		},
		{
			"buffer":0,
			"byteLength":5280,
			"byteOffset":188832,
			"target":34962
		},
		{
			"buffer":0,
			"byteLength":10560,
			"byteOffset":194112,
			"target":34962
		},
		{
			"buffer":0,
			"byteLength":7920,
			"byteOffset":204672,
			"target":34962
		},
		{
			"buffer":0,
			"byteLength":7920,
			"byteOffset":212592,
			"target":34962
		},
		{
			"buffer":0,
			"byteLength":5280,
			"byteOffset":220512,
			"target":34962
		},
		{
			"buffer":0,
			"byteLength":10560,
			"byteOffset":225792,
			"target":34962
		},
		{
			"buffer":0,
			"byteLength":7920,
			"byteOffset":236352,
			"target":34962
		},
		{
			"buffer":0,
			"byteLength":7920,
			"byteOffset":244272,
			"target":34962
		},
		{
			"buffer":0,
			"byteLength":5280,
			"byteOffset":252192,
			"target":34962
		},
		{
			"buffer":0,
			"byteLength":10560,
			"byteOffset":257472,
			"target":34962
		},
		{
			"buffer":0,
			"byteLength":7920,
			"byteOffset":268032,
			"target":34962
		},
		{
			"buffer":0,
			"byteLength":7920,
			"byteOffset":275952,
			"target":34962
		},
		{
			"buffer":0,
			"byteLength":5280,
			"byteOffset":283872,
			"target":34962
		},
		{
			"buffer":0,
			"byteLength":10560,
			"byteOffset":289152,
			"target":34962
		},
		{
			"buffer":0,
			"byteLength":168,
			"byteOffset":299712,
			"target":34962
		},
		{
			"buffer":0,
			"byteLength":168,
			"byteOffset":299880,
			"target":34962
		},
		{
			"buffer":0,
			"byteLength":112,
			"byteOffset":300048,
			"target":34962
		},
		{
			"buffer":0,
			"byteLength":224,
			"byteOffset":300160,
			"target":34962
		},
		{
			"buffer":0,
			"byteLength":72,
			"byteOffset":300384,
			"target":34963
		}
	],
	"samplers":[
		{
			"magFilter":9729,
			"minFilter":9987
		}
	],
	"buffers":[
		{
			"byteLength":300456,
			"uri":"D09-e1eee5d26c1b9cbf64ec5dc5c8ad6059.bin"
		}
	]
}
