{
	"asset":{
		"generator":"Khronos glTF Blender I/O v4.3.47",
		"version":"2.0"
	},
	"scene":0,
	"scenes":[
		{
			"name":"Scene",
			"nodes":[
				2
			]
		}
	],
	"nodes":[
		{
			"mesh":0,
			"name":"SurfSphere_001",
			"scale":[
				0.20000000298023224,
				0.4000000059604645,
				0.20000000298023224
			],
			"translation":[
				-0.015113890171051025,
				1,
				-0.001216888427734375
			]
		},
		{
			"children":[
				0
			],
			"mesh":1,
			"name":"Cube.001",
			"scale":[
				1,
				0.5,
				1
			],
			"translation":[
				1,
				0,
				-1
			]
		},
		{
			"children":[
				1
			],
			"name":"D12"
		}
	],
	"materials":[
		{
			"name":"Material_1",
			"normalTexture":{
				"index":0
			},
			"pbrMetallicRoughness":{
				"baseColorFactor":[
					0,
					0,
					0,
					1
				],
				"metallicFactor":0,
				"metallicRoughnessTexture":{
					"index":1
				}
			}
		},
		{
			"doubleSided":true,
			"name":"Material_Domino",
			"pbrMetallicRoughness":{
				"metallicFactor":0
			}
		}
	],
	"meshes":[
		{
			"name":"Mesh_1",
			"primitives":[
				{
					"attributes":{
						"POSITION":0,
						"NORMAL":1,
						"TEXCOORD_0":2
					},
					"indices":3,
					"material":0
				},
				{
					"attributes":{
						"POSITION":4,
						"NORMAL":5,
						"TEXCOORD_0":6
					},
					"indices":7,
					"material":1
				}
			]
		},
		{
			"name":"Mesh_0",
			"primitives":[
				{
					"attributes":{
						"POSITION":8,
						"NORMAL":9,
						"TEXCOORD_0":10,
						"TANGENT":11
					},
					"indices":12,
					"material":1
				}
			]
		}
	],
	"textures":[
		{
			"sampler":0,
			"source":0
		},
		{
			"sampler":0,
			"source":1
		}
	],
	"images":[
		{
			"mimeType":"image/png",
			"name":"_normal000.png",
			"uri":"../../common/tiles/textures/_normal000.png"
		},
		{
			"mimeType":"image/png",
			"name":"_orm000.png",
			"uri":"../../common/tiles/textures/_orm000.png"
		}
	],
	"accessors":[
		{
			"bufferView":0,
			"componentType":5126,
			"count":424,
			"max":[
				0.9971458911895752,
				0,
				0.9971465468406677
			],
			"min":[
				-0.9971470832824707,
				-1.0000001192092896,
				-0.9971464276313782
			],
			"type":"VEC3"
		},
		{
			"bufferView":1,
			"componentType":5126,
			"count":424,
			"type":"VEC3"
		},
		{
			"bufferView":2,
			"componentType":5126,
			"count":424,
			"type":"VEC2"
		},
		{
			"bufferView":3,
			"componentType":5123,
			"count":1926,
			"type":"SCALAR"
		},
		{
			"bufferView":4,
			"componentType":5126,
			"count":66,
			"max":[
				0.9971458911895752,
				0,
				0.99713134765625
			],
			"min":[
				-0.9971470832824707,
				0,
				-0.9971464276313782
			],
			"type":"VEC3"
		},
		{
			"bufferView":5,
			"componentType":5126,
			"count":66,
			"type":"VEC3"
		},
		{
			"bufferView":6,
			"componentType":5126,
			"count":66,
			"type":"VEC2"
		},
		{
			"bufferView":7,
			"componentType":5123,
			"count":192,
			"type":"SCALAR"
		},
		{
			"bufferView":8,
			"componentType":5126,
			"count":14,
			"max":[
				1,
				1,
				1
			],
			"min":[
				-1,
				-1,
				-1
			],
			"type":"VEC3"
		},
		{
			"bufferView":9,
			"componentType":5126,
			"count":14,
			"type":"VEC3"
		},
		{
			"bufferView":10,
			"componentType":5126,
			"count":14,
			"type":"VEC2"
		},
		{
			"bufferView":11,
			"componentType":5126,
			"count":14,
			"type":"VEC4"
		},
		{
			"bufferView":12,
			"componentType":5123,
			"count":36,
			"type":"SCALAR"
		}
	],
	"bufferViews":[
		{
			"buffer":0,
			"byteLength":5088,
			"byteOffset":0,
			"target":34962
		},
		{
			"buffer":0,
			"byteLength":5088,
			"byteOffset":5088,
			"target":34962
		},
		{
			"buffer":0,
			"byteLength":3392,
			"byteOffset":10176,
			"target":34962
		},
		{
			"buffer":0,
			"byteLength":3852,
			"byteOffset":13568,
			"target":34963
		},
		{
			"buffer":0,
			"byteLength":792,
			"byteOffset":17420,
			"target":34962
		},
		{
			"buffer":0,
			"byteLength":792,
			"byteOffset":18212,
			"target":34962
		},
		{
			"buffer":0,
			"byteLength":528,
			"byteOffset":19004,
			"target":34962
		},
		{
			"buffer":0,
			"byteLength":384,
			"byteOffset":19532,
			"target":34963
		},
		{
			"buffer":0,
			"byteLength":168,
			"byteOffset":19916,
			"target":34962
		},
		{
			"buffer":0,
			"byteLength":168,
			"byteOffset":20084,
			"target":34962
		},
		{
			"buffer":0,
			"byteLength":112,
			"byteOffset":20252,
			"target":34962
		},
		{
			"buffer":0,
			"byteLength":224,
			"byteOffset":20364,
			"target":34962
		},
		{
			"buffer":0,
			"byteLength":72,
			"byteOffset":20588,
			"target":34963
		}
	],
	"samplers":[
		{
			"magFilter":9729,
			"minFilter":9987
		}
	],
	"buffers":[
		{
			"byteLength":20660,
			"uri":"Domino%20fussing-d501d060c7834e3a1d3787282a639ae9.bin"
		}
	]
}
