<?xml version="1.0" encoding="UTF-8"?>
<svg width="1600" height="1200" xmlns="http://www.w3.org/2000/svg">
  <defs>
    <style>
      .signal-box { fill: #ff6b6b; stroke: #ee5a24; stroke-width: 2; }
      .rpc-box { fill: #4834d4; stroke: #3742fa; stroke-width: 2; }
      .event-box { fill: #26de81; stroke: #20bf6b; stroke-width: 2; }
      .autoload-ref { fill: #ffa726; stroke: #f57c00; stroke-width: 2; }
      .text-white { fill: white; font-family: Arial, sans-serif; font-size: 10px; font-weight: bold; text-anchor: middle; }
      .text-dark { fill: #333; font-family: Arial, sans-serif; font-size: 10px; font-weight: bold; text-anchor: middle; }
      .signal-line { stroke: #ff6b6b; stroke-width: 2; marker-end: url(#signalarrow); stroke-dasharray: 5,5; }
      .rpc-line { stroke: #4834d4; stroke-width: 2; marker-end: url(#rpcarrow); }
      .event-line { stroke: #26de81; stroke-width: 2; marker-end: url(#eventarrow); }
      .title-text { fill: #333; font-family: Arial, sans-serif; font-size: 20px; font-weight: bold; text-anchor: middle; }
      .section-title { fill: #555; font-family: Arial, sans-serif; font-size: 14px; font-weight: bold; }
      .description-text { fill: #666; font-family: Arial, sans-serif; font-size: 9px; }
      .flow-text { fill: #444; font-family: Arial, sans-serif; font-size: 8px; }
    </style>
    <marker id="signalarrow" markerWidth="8" markerHeight="6" refX="7" refY="3" orient="auto">
      <polygon points="0 0, 8 3, 0 6" fill="#ff6b6b" />
    </marker>
    <marker id="rpcarrow" markerWidth="8" markerHeight="6" refX="7" refY="3" orient="auto">
      <polygon points="0 0, 8 3, 0 6" fill="#4834d4" />
    </marker>
    <marker id="eventarrow" markerWidth="8" markerHeight="6" refX="7" refY="3" orient="auto">
      <polygon points="0 0, 8 3, 0 6" fill="#26de81" />
    </marker>
  </defs>
  
  <!-- Title -->
  <text x="800" y="30" class="title-text">Mexican Train - Signal & Network Flow Dependencies</text>
  
  <!-- NetworkManager Signal System -->
  <text x="50" y="70" class="section-title">NETWORKMANAGER SIGNAL SYSTEM</text>
  
  <!-- NetworkManager Core -->
  <rect x="200" y="90" width="150" height="60" class="autoload-ref" rx="5"/>
  <text x="275" y="110" class="text-dark">NetworkManager</text>
  <text x="275" y="125" class="text-dark" style="font-size: 8px;">Central Hub</text>
  <text x="275" y="138" class="text-dark" style="font-size: 8px;">Autoload Singleton</text>
  
  <!-- Signals Emitted by NetworkManager -->
  <rect x="50" y="180" width="120" height="40" class="signal-box" rx="3"/>
  <text x="110" y="195" class="text-white">player_connected</text>
  <text x="110" y="208" class="text-white" style="font-size: 8px;">Signal</text>
  
  <rect x="190" y="180" width="120" height="40" class="signal-box" rx="3"/>
  <text x="250" y="195" class="text-white">player_disconnected</text>
  <text x="250" y="208" class="text-white" style="font-size: 8px;">Signal</text>
  
  <rect x="330" y="180" width="120" height="40" class="signal-box" rx="3"/>
  <text x="390" y="195" class="text-white">game_state_updated</text>
  <text x="390" y="208" class="text-white" style="font-size: 8px;">Signal</text>
  
  <rect x="470" y="180" width="120" height="40" class="signal-box" rx="3"/>
  <text x="530" y="195" class="text-white">lobby_updated</text>
  <text x="530" y="208" class="text-white" style="font-size: 8px;">Signal</text>
  
  <rect x="120" y="240" width="120" height="40" class="signal-box" rx="3"/>
  <text x="180" y="255" class="text-white">game_created</text>
  <text x="180" y="268" class="text-white" style="font-size: 8px;">Signal</text>
  
  <rect x="260" y="240" width="120" height="40" class="signal-box" rx="3"/>
  <text x="320" y="255" class="text-white">game_joined</text>
  <text x="320" y="268" class="text-white" style="font-size: 8px;">Signal</text>
  
  <rect x="400" y="240" width="120" height="40" class="signal-box" rx="3"/>
  <text x="460" y="255" class="text-white">game_started</text>
  <text x="460" y="268" class="text-white" style="font-size: 8px;">Signal</text>
  
  <!-- Signal flow arrows from NetworkManager -->
  <line x1="235" y1="150" x2="110" y2="180" class="signal-line"/>
  <line x1="250" y1="150" x2="250" y2="180" class="signal-line"/>
  <line x1="290" y1="150" x2="390" y2="180" class="signal-line"/>
  <line x1="315" y1="150" x2="530" y2="180" class="signal-line"/>
  <line x1="255" y1="150" x2="180" y2="240" class="signal-line"/>
  <line x1="285" y1="150" x2="320" y2="240" class="signal-line"/>
  <line x1="295" y1="150" x2="460" y2="240" class="signal-line"/>
  
  <!-- RPC System -->
  <text x="700" y="70" class="section-title">NETWORK RPC SYSTEM</text>
  
  <!-- Server Side RPCs -->
  <text x="700" y="100" class="description-text" style="font-weight: bold;">SERVER SIDE (Receives from Clients)</text>
  
  <rect x="650" y="120" width="130" height="35" class="rpc-box" rx="3"/>
  <text x="715" y="135" class="text-white">_request_create_game</text>
  <text x="715" y="148" class="text-white" style="font-size: 7px;">RPC from Client</text>
  
  <rect x="800" y="120" width="130" height="35" class="rpc-box" rx="3"/>
  <text x="865" y="135" class="text-white">_request_join_game</text>
  <text x="865" y="148" class="text-white" style="font-size: 7px;">RPC from Client</text>
  
  <rect x="950" y="120" width="130" height="35" class="rpc-box" rx="3"/>
  <text x="1015" y="135" class="text-white">_request_lobby_data</text>
  <text x="1015" y="148" class="text-white" style="font-size: 7px;">RPC from Client</text>
  
  <rect x="650" y="170" width="130" height="35" class="rpc-box" rx="3"/>
  <text x="715" y="185" class="text-white">_request_add_ai</text>
  <text x="715" y="198" class="text-white" style="font-size: 7px;">RPC from Client</text>
  
  <rect x="800" y="170" width="130" height="35" class="rpc-box" rx="3"/>
  <text x="865" y="185" class="text-white">_request_set_ready</text>
  <text x="865" y="198" class="text-white" style="font-size: 7px;">RPC from Client</text>
  
  <rect x="950" y="170" width="130" height="35" class="rpc-box" rx="3"/>
  <text x="1015" y="185" class="text-white">_request_start_game</text>
  <text x="1015" y="198" class="text-white" style="font-size: 7px;">RPC from Client</text>
  
  <!-- Client Side RPCs -->
  <text x="700" y="240" class="description-text" style="font-weight: bold;">CLIENT SIDE (Receives from Server)</text>
  
  <rect x="650" y="260" width="130" height="35" class="rpc-box" rx="3"/>
  <text x="715" y="275" class="text-white">_receive_game_created</text>
  <text x="715" y="288" class="text-white" style="font-size: 7px;">RPC from Server</text>
  
  <rect x="800" y="260" width="130" height="35" class="rpc-box" rx="3"/>
  <text x="865" y="275" class="text-white">_receive_join_result</text>
  <text x="865" y="288" class="text-white" style="font-size: 7px;">RPC from Server</text>
  
  <rect x="950" y="260" width="130" height="35" class="rpc-box" rx="3"/>
  <text x="1015" y="275" class="text-white">_receive_lobby_data</text>
  <text x="1015" y="288" class="text-white" style="font-size: 7px;">RPC from Server</text>
  
  <rect x="650" y="310" width="130" height="35" class="rpc-box" rx="3"/>
  <text x="715" y="325" class="text-white">_receive_ai_add_result</text>
  <text x="715" y="338" class="text-white" style="font-size: 7px;">RPC from Server</text>
  
  <rect x="800" y="310" width="130" height="35" class="rpc-box" rx="3"/>
  <text x="865" y="325" class="text-white">_receive_ready_result</text>
  <text x="865" y="338" class="text-white" style="font-size: 7px;">RPC from Server</text>
  
  <rect x="950" y="310" width="130" height="35" class="rpc-box" rx="3"/>
  <text x="1015" y="325" class="text-white">_receive_start_result</text>
  <text x="1015" y="338" class="text-white" style="font-size: 7px;">RPC from Server</text>
  
  <!-- EventBus System -->
  <text x="50" y="350" class="section-title">EVENTBUS SIGNAL HUB</text>
  
  <!-- EventBus Core -->
  <rect x="200" y="370" width="150" height="60" class="autoload-ref" rx="5"/>
  <text x="275" y="390" class="text-dark">EventBus</text>
  <text x="275" y="405" class="text-dark" style="font-size: 8px;">Global Signal Hub</text>
  <text x="275" y="418" class="text-dark" style="font-size: 8px;">Autoload Singleton</text>
  
  <!-- Game Events -->
  <rect x="50" y="460" width="110" height="35" class="event-box" rx="3"/>
  <text x="105" y="475" class="text-white">domino_selected</text>
  <text x="105" y="488" class="text-white" style="font-size: 7px;">Game Event</text>
  
  <rect x="180" y="460" width="110" height="35" class="event-box" rx="3"/>
  <text x="235" y="475" class="text-white">domino_dropped</text>
  <text x="235" y="488" class="text-white" style="font-size: 7px;">Game Event</text>
  
  <rect x="310" y="460" width="110" height="35" class="event-box" rx="3"/>
  <text x="365" y="475" class="text-white">domino_rejected</text>
  <text x="365" y="488" class="text-white" style="font-size: 7px;">Game Event</text>
  
  <rect x="440" y="460" width="110" height="35" class="event-box" rx="3"/>
  <text x="495" y="475" class="text-white">train_enabled</text>
  <text x="495" y="488" class="text-white" style="font-size: 7px;">Game Event</text>
  
  <!-- Network Events -->
  <rect x="120" y="510" width="110" height="35" class="event-box" rx="3"/>
  <text x="175" y="525" class="text-white">turn_changed</text>
  <text x="175" y="538" class="text-white" style="font-size: 7px;">Network Event</text>
  
  <rect x="250" y="510" width="130" height="35" class="event-box" rx="3"/>
  <text x="315" y="525" class="text-white">network_domino_action</text>
  <text x="315" y="538" class="text-white" style="font-size: 7px;">Network Event</text>
  
  <rect x="400" y="510" width="130" height="35" class="event-box" rx="3"/>
  <text x="465" y="525" class="text-white">player_list_updated</text>
  <text x="465" y="538" class="text-white" style="font-size: 7px;">Network Event</text>
  
  <!-- Admin Events -->
  <rect x="120" y="560" width="130" height="35" class="event-box" rx="3"/>
  <text x="185" y="575" class="text-white">admin_data_received</text>
  <text x="185" y="588" class="text-white" style="font-size: 7px;">Admin Event</text>
  
  <rect x="270" y="560" width="130" height="35" class="event-box" rx="3"/>
  <text x="335" y="575" class="text-white">admin_auth_result</text>
  <text x="335" y="588" class="text-white" style="font-size: 7px;">Admin Event</text>
  
  <rect x="420" y="560" width="130" height="35" class="event-box" rx="3"/>
  <text x="485" y="575" class="text-white">server_control_result</text>
  <text x="485" y="588" class="text-white" style="font-size: 7px;">Admin Event</text>
  
  <!-- Event flow arrows from EventBus -->
  <line x1="235" y1="430" x2="105" y2="460" class="event-line"/>
  <line x1="250" y1="430" x2="235" y2="460" class="event-line"/>
  <line x1="290" y1="430" x2="365" y2="460" class="event-line"/>
  <line x1="315" y1="430" x2="495" y2="460" class="event-line"/>
  <line x1="255" y1="430" x2="175" y2="510" class="event-line"/>
  <line x1="275" y1="430" x2="315" y2="510" class="event-line"/>
  <line x1="295" y1="430" x2="465" y2="510" class="event-line"/>
  <line x1="265" y1="430" x2="185" y2="560" class="event-line"/>
  <line x1="285" y1="430" x2="335" y2="560" class="event-line"/>
  <line x1="305" y1="430" x2="485" y2="560" class="event-line"/>
  
  <!-- LobbyManager Integration -->
  <text x="700" y="380" class="section-title">LOBBYMANAGER INTEGRATION</text>
  
  <!-- LobbyManager -->
  <rect x="800" y="400" width="150" height="60" class="autoload-ref" rx="5"/>
  <text x="875" y="420" class="text-dark">LobbyManager</text>
  <text x="875" y="435" class="text-dark" style="font-size: 8px;">Game Management</text>
  <text x="875" y="448" class="text-dark" style="font-size: 8px;">Autoload Singleton</text>
  
  <!-- LobbyManager Signals -->
  <rect x="650" y="490" width="110" height="35" class="signal-box" rx="3"/>
  <text x="705" y="505" class="text-white">game_created</text>
  <text x="705" y="518" class="text-white" style="font-size: 7px;">Lobby Signal</text>
  
  <rect x="780" y="490" width="110" height="35" class="signal-box" rx="3"/>
  <text x="835" y="505" class="text-white">game_joined</text>
  <text x="835" y="518" class="text-white" style="font-size: 7px;">Lobby Signal</text>
  
  <rect x="910" y="490" width="110" height="35" class="signal-box" rx="3"/>
  <text x="965" y="505" class="text-white">game_started</text>
  <text x="965" y="518" class="text-white" style="font-size: 7px;">Lobby Signal</text>
  
  <rect x="1040" y="490" width="110" height="35" class="signal-box" rx="3"/>
  <text x="1095" y="505" class="text-white">lobby_updated</text>
  <text x="1095" y="518" class="text-white" style="font-size: 7px;">Lobby Signal</text>
  
  <!-- Connection between LobbyManager and NetworkManager -->
  <line x1="800" y1="430" x2="350" y2="120" class="signal-line" style="stroke: #ffa726; stroke-width: 3;"/>
  <text x="500" y="270" class="description-text" style="fill: #ffa726; font-weight: bold;">Bidirectional Signal Flow</text>
  
  <!-- ServerAdmin System -->
  <text x="1200" y="70" class="section-title">SERVERADMIN SYSTEM</text>
  
  <!-- ServerAdmin -->
  <rect x="1200" y="90" width="150" height="60" class="autoload-ref" rx="5"/>
  <text x="1275" y="110" class="text-dark">ServerAdmin</text>
  <text x="1275" y="125" class="text-dark" style="font-size: 8px;">Authentication</text>
  <text x="1275" y="138" class="text-dark" style="font-size: 8px;">Autoload Singleton</text>
  
  <!-- Admin Signals -->
  <rect x="1100" y="180" width="130" height="35" class="signal-box" rx="3"/>
  <text x="1165" y="195" class="text-white">admin_authenticated</text>
  <text x="1165" y="208" class="text-white" style="font-size: 7px;">Admin Signal</text>
  
  <rect x="1250" y="180" width="130" height="35" class="signal-box" rx="3"/>
  <text x="1315" y="195" class="text-white">admin_access_denied</text>
  <text x="1315" y="208" class="text-white" style="font-size: 7px;">Admin Signal</text>
  
  <rect x="1400" y="180" width="130" height="35" class="signal-box" rx="3"/>
  <text x="1465" y="195" class="text-white">server_metrics_updated</text>
  <text x="1465" y="208" class="text-white" style="font-size: 7px;">Admin Signal</text>
  
  <!-- Signal flow from ServerAdmin -->
  <line x1="1245" y1="150" x2="1165" y2="180" class="signal-line"/>
  <line x1="1275" y1="150" x2="1315" y2="180" class="signal-line"/>
  <line x1="1305" y1="150" x2="1465" y2="180" class="signal-line"/>
  
  <!-- Critical Data Flow -->
  <text x="50" y="650" class="section-title">CRITICAL DATA FLOW PATHS</text>
  
  <!-- Flow Path 1: Client Connection -->
  <rect x="50" y="680" width="200" height="30" fill="#e3f2fd" stroke="#1976d2" stroke-width="2" rx="3"/>
  <text x="150" y="698" class="text-dark" style="font-size: 9px;">1. Client Connection Flow</text>
  
  <text x="50" y="720" class="flow-text">Client → NetworkManager.connect_to_server() → multiplayer.peer_connected</text>
  <text x="50" y="735" class="flow-text">→ NetworkManager._on_peer_connected() → player_connected signal</text>
  <text x="50" y="750" class="flow-text">→ Test scripts & admin dashboard listen to player_connected</text>
  
  <!-- Flow Path 2: Game Creation -->
  <rect x="50" y="770" width="200" height="30" fill="#f3e5f5" stroke="#7b1fa2" stroke-width="2" rx="3"/>
  <text x="150" y="788" class="text-dark" style="font-size: 9px;">2. Game Creation Flow</text>
  
  <text x="50" y="810" class="flow-text">Client → NetworkManager.create_game() → RPC _request_create_game</text>
  <text x="50" y="825" class="flow-text">→ Server LobbyManager.create_game() → game_created signal</text>
  <text x="50" y="840" class="flow-text">→ NetworkManager receives → emits game_created → Client UI updates</text>
  
  <!-- Flow Path 3: Admin Authentication -->
  <rect x="50" y="860" width="200" height="30" fill="#fff3e0" stroke="#f57c00" stroke-width="2" rx="3"/>
  <text x="150" y="878" class="text-dark" style="font-size: 9px;">3. Admin Authentication Flow</text>
  
  <text x="50" y="900" class="flow-text">Admin Dashboard → ServerAdmin.authenticate() → admin_authenticated signal</text>
  <text x="50" y="915" class="flow-text">→ Admin Dashboard receives → updates UI state → shows server metrics</text>
  <text x="50" y="930" class="flow-text">→ Periodic ServerAdmin.get_metrics() → server_metrics_updated signal</text>
  
  <!-- Dependencies Summary -->
  <rect x="800" y="650" width="350" height="200" fill="#f8f9fa" stroke="#dee2e6" stroke-width="1" rx="5"/>
  <text x="975" y="675" class="section-title" style="text-anchor: middle;">Signal Dependencies Summary</text>
  
  <text x="820" y="700" class="description-text" style="font-weight: bold;">NetworkManager (Central Hub):</text>
  <text x="820" y="715" class="description-text">• Emits 7 core signals for game states</text>
  <text x="820" y="730" class="description-text">• Handles 12 RPC methods (6 server, 6 client)</text>
  <text x="820" y="745" class="description-text">• Connects to LobbyManager bidirectionally</text>
  
  <text x="820" y="770" class="description-text" style="font-weight: bold;">EventBus (Signal Router):</text>
  <text x="820" y="785" class="description-text">• 15+ global signals for game events</text>
  <text x="820" y="800" class="description-text">• Used by NetworkManager for broadcasting</text>
  <text x="820" y="815" class="description-text">• Decouples components via signal routing</text>
  
  <text x="820" y="835" class="description-text" style="font-weight: bold;">No Orphaned Signals:</text>
  <text x="820" y="850" class="description-text">All signals have connected listeners in test</text>
  <text x="820" y="865" class="description-text">infrastructure or admin dashboard</text>
  
  <!-- Legend -->
  <rect x="1200" y="650" width="350" height="200" fill="#f8f9fa" stroke="#dee2e6" stroke-width="1" rx="5"/>
  <text x="1375" y="675" class="section-title" style="text-anchor: middle;">Legend</text>
  
  <rect x="1220" y="690" width="60" height="20" class="signal-box" rx="2"/>
  <text x="1290" y="703" class="description-text">Signal (emit/connect)</text>
  
  <rect x="1220" y="720" width="60" height="20" class="rpc-box" rx="2"/>
  <text x="1290" y="733" class="description-text">RPC Method</text>
  
  <rect x="1220" y="750" width="60" height="20" class="event-box" rx="2"/>
  <text x="1290" y="763" class="description-text">EventBus Signal</text>
  
  <rect x="1220" y="780" width="60" height="20" class="autoload-ref" rx="2"/>
  <text x="1290" y="793" class="description-text">Autoload Reference</text>
  
  <line x1="1220" y1="810" x2="1250" y2="810" class="signal-line"/>
  <text x="1260" y="815" class="description-text">Signal Flow</text>
  
  <line x1="1220" y1="830" x2="1250" y2="830" class="rpc-line"/>
  <text x="1260" y="835" class="description-text">RPC Call</text>
  
</svg>
