<?xml version="1.0" encoding="UTF-8"?>
<svg width="1400" height="1000" xmlns="http://www.w3.org/2000/svg">
  <defs>
    <style>
      .script-box { fill: #28a745; stroke: #1e7e34; stroke-width: 2; }
      .scene-box { fill: #ffc107; stroke: #e0a800; stroke-width: 2; }
      .instance-box { fill: #17a2b8; stroke: #138496; stroke-width: 2; }
      .test-box { fill: #6f42c1; stroke: #5a2d91; stroke-width: 2; }
      .util-box { fill: #fd7e14; stroke: #e55100; stroke-width: 2; }
      .text-label { fill: white; font-family: Arial, sans-serif; font-size: 10px; font-weight: bold; text-anchor: middle; }
      .connection-line { stroke: #666; stroke-width: 1.5; marker-end: url(#smallarrow); }
      .preload-line { stroke: #e74c3c; stroke-width: 2; stroke-dasharray: 3,3; marker-end: url(#redarrow); }
      .title-text { fill: #333; font-family: Arial, sans-serif; font-size: 18px; font-weight: bold; text-anchor: middle; }
      .section-title { fill: #555; font-family: Arial, sans-serif; font-size: 12px; font-weight: bold; }
      .description-text { fill: #666; font-family: Arial, sans-serif; font-size: 10px; }
    </style>
    <marker id="smallarrow" markerWidth="8" markerHeight="6" refX="7" refY="3" orient="auto">
      <polygon points="0 0, 8 3, 0 6" fill="#666" />
    </marker>
    <marker id="redarrow" markerWidth="8" markerHeight="6" refX="7" refY="3" orient="auto">
      <polygon points="0 0, 8 3, 0 6" fill="#e74c3c" />
    </marker>
  </defs>
  
  <!-- Title -->
  <text x="700" y="25" class="title-text">Mexican Train - Script to Scene Dependencies</text>
  
  <!-- Core Game Components Section -->
  <text x="50" y="60" class="section-title">CORE GAME COMPONENTS</text>
  
  <!-- BoneYard -->
  <rect x="50" y="80" width="100" height="40" class="script-box" rx="3"/>
  <text x="100" y="95" class="text-label">bone_yard.gd</text>
  <text x="100" y="108" class="text-label" style="font-size: 8px;">Script</text>
  
  <rect x="200" y="80" width="100" height="40" class="scene-box" rx="3"/>
  <text x="250" y="95" class="text-label" style="fill: #333;">bone_yard.tscn</text>
  <text x="250" y="108" class="text-label" style="fill: #333; font-size: 8px;">Scene</text>
  
  <line x1="150" y1="100" x2="200" y2="100" class="connection-line"/>
  
  <!-- Domino -->
  <rect x="50" y="140" width="100" height="40" class="script-box" rx="3"/>
  <text x="100" y="155" class="text-label">domino.gd</text>
  <text x="100" y="168" class="text-label" style="font-size: 8px;">Script</text>
  
  <rect x="200" y="140" width="100" height="40" class="scene-box" rx="3"/>
  <text x="250" y="155" class="text-label" style="fill: #333;">domino.tscn</text>
  <text x="250" y="168" class="text-label" style="fill: #333; font-size: 8px;">Scene</text>
  
  <line x1="150" y1="160" x2="200" y2="160" class="connection-line"/>
  
  <!-- Hand -->
  <rect x="50" y="200" width="100" height="40" class="script-box" rx="3"/>
  <text x="100" y="215" class="text-label">hand.gd</text>
  <text x="100" y="228" class="text-label" style="font-size: 8px;">Script</text>
  
  <rect x="200" y="200" width="100" height="40" class="scene-box" rx="3"/>
  <text x="250" y="215" class="text-label" style="fill: #333;">hand.tscn</text>
  <text x="250" y="228" class="text-label" style="fill: #333; font-size: 8px;">Scene</text>
  
  <line x1="150" y1="220" x2="200" y2="220" class="connection-line"/>
  
  <!-- Station -->
  <rect x="50" y="260" width="100" height="40" class="script-box" rx="3"/>
  <text x="100" y="275" class="text-label">station.gd</text>
  <text x="100" y="288" class="text-label" style="font-size: 8px;">Script</text>
  
  <rect x="200" y="260" width="100" height="40" class="scene-box" rx="3"/>
  <text x="250" y="275" class="text-label" style="fill: #333;">station.tscn</text>
  <text x="250" y="288" class="text-label" style="fill: #333; font-size: 8px;">Scene</text>
  
  <line x1="150" y1="280" x2="200" y2="280" class="connection-line"/>
  
  <!-- Train -->
  <rect x="50" y="320" width="100" height="40" class="script-box" rx="3"/>
  <text x="100" y="335" class="text-label">train.gd</text>
  <text x="100" y="348" class="text-label" style="font-size: 8px;">Script</text>
  
  <rect x="200" y="320" width="100" height="40" class="scene-box" rx="3"/>
  <text x="250" y="335" class="text-label" style="fill: #333;">train.tscn</text>
  <text x="250" y="348" class="text-label" style="fill: #333; font-size: 8px;">Scene</text>
  
  <line x1="150" y1="340" x2="200" y2="340" class="connection-line"/>
  
  <!-- Preload Dependencies -->
  <text x="50" y="400" class="section-title">PRELOAD DEPENDENCIES</text>
  
  <!-- BoneYard preloads Domino -->
  <line x1="100" y1="120" x2="250" y2="140" class="preload-line"/>
  <text x="140" y="128" class="description-text" style="fill: #e74c3c;">preloads</text>
  
  <!-- Hand preloads Domino -->
  <line x1="100" y1="240" x2="250" y2="180" class="preload-line"/>
  <text x="140" y="205" class="description-text" style="fill: #e74c3c;">preloads</text>
  
  <!-- Admin System Section -->
  <text x="400" y="60" class="section-title">ADMIN SYSTEM</text>
  
  <!-- Admin Dashboard -->
  <rect x="400" y="80" width="120" height="40" class="script-box" rx="3"/>
  <text x="460" y="95" class="text-label">admin_dashboard.gd</text>
  <text x="460" y="108" class="text-label" style="font-size: 8px;">Script</text>
  
  <rect x="560" y="80" width="120" height="40" class="scene-box" rx="3"/>
  <text x="620" y="95" class="text-label" style="fill: #333;">admin_dashboard.tscn</text>
  <text x="620" y="108" class="text-label" style="fill: #333; font-size: 8px;">Scene</text>
  
  <line x1="520" y1="100" x2="560" y2="100" class="connection-line"/>
  
  <!-- Embedded Scripts -->
  <rect x="400" y="140" width="100" height="30" class="script-box" rx="3"/>
  <text x="450" y="152" class="text-label" style="font-size: 9px;">admin_login.gd</text>
  <text x="450" y="163" class="text-label" style="font-size: 7px;">Embedded</text>
  
  <rect x="520" y="140" width="100" height="30" class="script-box" rx="3"/>
  <text x="570" y="152" class="text-label" style="font-size: 8px;">server_panel.gd</text>
  <text x="570" y="163" class="text-label" style="font-size: 7px;">Embedded</text>
  
  <rect x="640" y="140" width="100" height="30" class="script-box" rx="3"/>
  <text x="690" y="152" class="text-label" style="font-size: 8px;">games_panel.gd</text>
  <text x="690" y="163" class="text-label" style="font-size: 7px;">Embedded</text>
  
  <!-- Connections to main scene -->
  <line x1="450" y1="140" x2="590" y2="120" class="connection-line"/>
  <line x1="570" y1="140" x2="610" y2="120" class="connection-line"/>
  <line x1="690" y1="140" x2="630" y2="120" class="connection-line"/>
  
  <!-- Server System -->
  <text x="400" y="220" class="section-title">SERVER SYSTEM</text>
  
  <rect x="400" y="240" width="120" height="40" class="script-box" rx="3"/>
  <text x="460" y="255" class="text-label">headless_server.gd</text>
  <text x="460" y="268" class="text-label" style="font-size: 8px;">Script</text>
  
  <rect x="560" y="240" width="120" height="40" class="scene-box" rx="3"/>
  <text x="620" y="255" class="text-label" style="fill: #333;">headless_server.tscn</text>
  <text x="620" y="268" class="text-label" style="fill: #333; font-size: 8px;">Scene</text>
  
  <line x1="520" y1="260" x2="560" y2="260" class="connection-line"/>
  
  <!-- Client System -->
  <text x="400" y="320" class="section-title">CLIENT SYSTEM</text>
  
  <rect x="400" y="340" width="120" height="40" class="script-box" rx="3"/>
  <text x="460" y="355" class="text-label">client_lobby.gd</text>
  <text x="460" y="368" class="text-label" style="font-size: 8px;">Script</text>
  
  <rect x="560" y="340" width="120" height="40" class="scene-box" rx="3"/>
  <text x="620" y="355" class="text-label" style="fill: #333;">client_lobby.tscn</text>
  <text x="620" y="368" class="text-label" style="fill: #333; font-size: 8px;">Scene</text>
  
  <line x1="520" y1="360" x2="560" y2="360" class="connection-line"/>
  
  <!-- Integration Test Scenes Section -->
  <text x="800" y="60" class="section-title">INTEGRATION TEST SCENES</text>
  
  <!-- Complete Test -->
  <rect x="800" y="80" width="140" height="40" class="instance-box" rx="3"/>
  <text x="870" y="95" class="text-label">mexican_train_complete_test</text>
  <text x="870" y="108" class="text-label" style="font-size: 8px;">Integration Scene</text>
  
  <!-- Component instances -->
  <rect x="750" y="140" width="60" height="25" class="scene-box" rx="2"/>
  <text x="780" y="150" class="text-label" style="fill: #333; font-size: 8px;">BoneYard</text>
  <text x="780" y="160" class="text-label" style="fill: #333; font-size: 6px;">instance</text>
  
  <rect x="820" y="140" width="60" height="25" class="scene-box" rx="2"/>
  <text x="850" y="150" class="text-label" style="fill: #333; font-size: 8px;">Hand</text>
  <text x="850" y="160" class="text-label" style="fill: #333; font-size: 6px;">instance</text>
  
  <rect x="890" y="140" width="60" height="25" class="scene-box" rx="2"/>
  <text x="920" y="150" class="text-label" style="fill: #333; font-size: 8px;">Station</text>
  <text x="920" y="160" class="text-label" style="fill: #333; font-size: 6px;">instance</text>
  
  <rect x="960" y="140" width="60" height="25" class="scene-box" rx="2"/>
  <text x="990" y="150" class="text-label" style="fill: #333; font-size: 8px;">Train</text>
  <text x="990" y="160" class="text-label" style="fill: #333; font-size: 6px;">instance</text>
  
  <!-- Instance connections -->
  <line x1="780" y1="140" x2="850" y2="120" class="connection-line"/>
  <line x1="850" y1="140" x2="870" y2="120" class="connection-line"/>
  <line x1="920" y1="140" x2="880" y2="120" class="connection-line"/>
  <line x1="990" y1="140" x2="890" y2="120" class="connection-line"/>
  
  <!-- 8 Player Test -->
  <rect x="800" y="200" width="140" height="40" class="instance-box" rx="3"/>
  <text x="870" y="215" class="text-label">mexican_train_8_player_test</text>
  <text x="870" y="228" class="text-label" style="font-size: 8px;">8-Player Layout</text>
  
  <!-- Multiplayer Test -->
  <rect x="800" y="260" width="140" height="40" class="instance-box" rx="3"/>
  <text x="870" y="275" class="text-label">mexican_train_multiplayer_test</text>
  <text x="870" y="288" class="text-label" style="font-size: 8px;">Network Testing</text>
  
  <!-- Utility Classes Section -->
  <text x="50" y="500" class="section-title">UTILITY CLASSES</text>
  
  <rect x="50" y="520" width="100" height="30" class="util-box" rx="3"/>
  <text x="100" y="532" class="text-label">player_name_util.gd</text>
  <text x="100" y="543" class="text-label" style="font-size: 7px;">Utility</text>
  
  <rect x="160" y="520" width="100" height="30" class="util-box" rx="3"/>
  <text x="210" y="532" class="text-label">color_theme_mgr.gd</text>
  <text x="210" y="543" class="text-label" style="font-size: 7px;">Utility</text>
  
  <rect x="270" y="520" width="100" height="30" class="util-box" rx="3"/>
  <text x="320" y="532" class="text-label">drop_target.gd</text>
  <text x="320" y="543" class="text-label" style="font-size: 7px;">Utility</text>
  
  <!-- Test System Section -->
  <text x="50" y="580" class="section-title">TEST SYSTEM (87+ FILES)</text>
  
  <!-- Sample Test Scripts -->
  <rect x="50" y="600" width="120" height="30" class="test-box" rx="3"/>
  <text x="110" y="612" class="text-label">domino_basic_test.gd</text>
  <text x="110" y="623" class="text-label" style="font-size: 7px;">Component Test</text>
  
  <rect x="180" y="600" width="120" height="30" class="test-box" rx="3"/>
  <text x="240" y="612" class="text-label">server_mechanics_test.gd</text>
  <text x="240" y="623" class="text-label" style="font-size: 7px;">Server Test</text>
  
  <rect x="310" y="600" width="120" height="30" class="test-box" rx="3"/>
  <text x="370" y="612" class="text-label">hand_drag_drop_test.gd</text>
  <text x="370" y="623" class="text-label" style="font-size: 7px;">Integration Test</text>
  
  <!-- Test Scene Connections -->
  <rect x="50" y="650" width="120" height="30" class="test-box" rx="3" style="fill: #9c27b0; stroke: #7b1fa2;"/>
  <text x="110" y="662" class="text-label">domino_basic_test.tscn</text>
  <text x="110" y="673" class="text-label" style="font-size: 7px;">Test Scene</text>
  
  <rect x="180" y="650" width="120" height="30" class="test-box" rx="3" style="fill: #9c27b0; stroke: #7b1fa2;"/>
  <text x="240" y="662" class="text-label">server_mechanics_test.tscn</text>
  <text x="240" y="673" class="text-label" style="font-size: 7px;">Test Scene</text>
  
  <rect x="310" y="650" width="120" height="30" class="test-box" rx="3" style="fill: #9c27b0; stroke: #7b1fa2;"/>
  <text x="370" y="662" class="text-label">hand_drag_drop_test.tscn</text>
  <text x="370" y="673" class="text-label" style="font-size: 7px;">Test Scene</text>
  
  <line x1="110" y1="630" x2="110" y2="650" class="connection-line"/>
  <line x1="240" y1="630" x2="240" y2="650" class="connection-line"/>
  <line x1="370" y1="630" x2="370" y2="650" class="connection-line"/>
  
  <!-- NetworkManager Preload -->
  <text x="800" y="350" class="section-title">SPECIAL DEPENDENCIES</text>
  
  <rect x="800" y="370" width="120" height="30" class="script-box" rx="3"/>
  <text x="860" y="382" class="text-label">NetworkManager.gd</text>
  <text x="860" y="393" class="text-label" style="font-size: 7px;">Autoload</text>
  
  <rect x="950" y="370" width="120" height="30" class="util-box" rx="3"/>
  <text x="1010" y="382" class="text-label">player_name_util.gd</text>
  <text x="1010" y="393" class="text-label" style="font-size: 7px;">Utility</text>
  
  <line x1="920" y1="385" x2="950" y2="385" class="preload-line"/>
  <text x="930" y="380" class="description-text" style="fill: #e74c3c; font-size: 8px;">preloads</text>
  
  <!-- Legend -->
  <rect x="1100" y="500" width="250" height="200" fill="#f8f9fa" stroke="#dee2e6" stroke-width="1" rx="5"/>
  <text x="1225" y="520" class="section-title" style="text-anchor: middle;">Legend</text>
  
  <rect x="1120" y="535" width="40" height="20" class="script-box" rx="2"/>
  <text x="1170" y="548" class="description-text">Script File (.gd)</text>
  
  <rect x="1120" y="560" width="40" height="20" class="scene-box" rx="2"/>
  <text x="1170" y="573" class="description-text">Scene File (.tscn)</text>
  
  <rect x="1120" y="585" width="40" height="20" class="instance-box" rx="2"/>
  <text x="1170" y="598" class="description-text">Integration Scene</text>
  
  <rect x="1120" y="610" width="40" height="20" class="test-box" rx="2"/>
  <text x="1170" y="623" class="description-text">Test Script/Scene</text>
  
  <rect x="1120" y="635" width="40" height="20" class="util-box" rx="2"/>
  <text x="1170" y="648" class="description-text">Utility Class</text>
  
  <line x1="1120" y1="665" x2="1150" y2="665" class="connection-line"/>
  <text x="1160" y="670" class="description-text">Script → Scene</text>
  
  <line x1="1120" y1="680" x2="1150" y2="680" class="preload-line"/>
  <text x="1160" y="685" class="description-text">Preload Dependency</text>
  
  <!-- Statistics Box -->
  <rect x="1100" y="750" width="250" height="150" fill="#e8f5e8" stroke="#28a745" stroke-width="1" rx="5"/>
  <text x="1225" y="770" class="section-title" style="text-anchor: middle; fill: #28a745;">File Statistics</text>
  
  <text x="1120" y="790" class="description-text">Total Scripts: ~40 core components</text>
  <text x="1120" y="805" class="description-text">Total Scenes: ~60 scene definitions</text>
  <text x="1120" y="820" class="description-text">Test Scripts: ~50 test implementations</text>
  <text x="1120" y="835" class="description-text">Utility Classes: 5 helper scripts</text>
  <text x="1120" y="850" class="description-text">Integration Scenes: 8 major tests</text>
  <text x="1120" y="870" class="description-text" style="font-weight: bold; fill: #28a745;">Strong dependency coupling through</text>
  <text x="1120" y="885" class="description-text" style="font-weight: bold; fill: #28a745;">preload system and scene instances</text>
  
</svg>
